<?xml version="1.0" encoding="UTF-8" standalone="no"?>
<!DOCTYPE svg PUBLIC "-//W3C//DTD SVG 1.1//EN" "http://www.w3.org/Graphics/SVG/1.1/DTD/svg11.dtd">
<svg width="100%" height="100%" viewBox="0 0 8268 8268" version="1.1" xmlns="http://www.w3.org/2000/svg" xmlns:xlink="http://www.w3.org/1999/xlink" xml:space="preserve" xmlns:serif="http://www.serif.com/" style="fill-rule:evenodd;clip-rule:evenodd;stroke-linejoin:round;stroke-miterlimit:2;">
    <g id="logo">
        <g id="padding" transform="matrix(1.40715,0,0,1.40715,-1682.97,-1688.94)">
            <rect x="1196.01" y="1200.25" width="5875.69" height="5867.23" style="fill:white;"/>
        </g>
        <g id="background" transform="matrix(1.40715,0,0,1.40715,-1682.97,-1688.94)">
            <rect x="1242.12" y="1242.17" width="5783.47" height="5783.39" style="fill:rgb(29,53,87);"/>
        </g>
        <g id="badge" transform="matrix(1.40715,0,0,1.40715,-1682.97,-1688.94)">
            <g id="g238">
                <g id="g240">
                    <path id="path242" d="M5321.61,2667.59C5321.61,2623.91 5306.84,2588.67 5274.83,2569.88C5254.77,2558.09 5227.64,2554.25 5194.15,2554.25L4950.71,2554.21L4950.71,3045.85L5215.68,3045.85C5276.77,3045.85 5312.69,3059.58 5315.82,3114.39L5321.65,3114.39L5321.61,2667.59Z" style="fill:white;fill-rule:nonzero;"/>
                </g>
            </g>
            <g id="g244">
                <g id="g246">
                    <path id="path248" d="M5355.64,2667.59C5355.64,2623.91 5370.43,2588.67 5402.42,2569.88C5422.48,2558.09 5449.64,2554.25 5483.1,2554.25L5728.25,2554.21L5728.25,3045.85L5461.57,3045.85C5400.51,3045.85 5364.58,3059.58 5361.45,3114.39L5355.6,3114.39L5355.64,2667.59Z" style="fill:white;fill-rule:nonzero;"/>
                </g>
            </g>
            <g id="g250">
                <g id="g252">
                    <path id="path254" d="M5779.14,2590.58L5779.14,3110.29L5402.71,3110.29L5398.41,3120.9C5391.86,3137.12 5380.13,3152.12 5339.01,3152.12C5297.94,3152.12 5286.21,3137.12 5279.64,3120.9L5275.36,3110.29L4899.52,3110.29L4899.52,2590.58L4865.53,2590.58L4865.53,2606.41L4832.91,2596.39C4829.15,2583.56 4817.42,2574.14 4803.36,2574.14C4786.29,2574.14 4772.41,2588.01 4772.41,2605.11C4772.41,2622.2 4786.29,2636.06 4803.36,2636.06C4810.83,2636.06 4817.58,2633.3 4822.93,2628.9L4865.53,2641.97L4865.53,2683.76L4833.52,2678.03C4828.78,2666.97 4817.83,2659.21 4805.06,2659.21C4787.98,2659.21 4774.11,2673.09 4774.11,2690.18C4774.11,2707.28 4787.98,2721.14 4805.06,2721.14C4813.89,2721.14 4821.81,2717.38 4827.46,2711.47L4865.53,2718.28L4865.53,2760.88L4832.07,2759.41C4826.68,2750.39 4816.89,2744.29 4805.61,2744.29C4788.55,2744.29 4774.66,2758.17 4774.66,2775.24C4774.66,2792.36 4788.55,2806.22 4805.61,2806.22C4815.93,2806.22 4825.01,2801.11 4830.64,2793.36L4865.53,2794.91L4865.53,2841.18L4831.34,2842.41C4825.73,2834.55 4816.59,2829.39 4806.2,2829.39C4789.12,2829.39 4775.23,2843.24 4775.23,2860.34C4775.23,2877.44 4789.12,2891.29 4806.2,2891.29C4817.38,2891.29 4827.09,2885.3 4832.54,2876.4L4865.53,2875.22L4865.53,2917.88L4828.13,2924.3C4822.5,2918.29 4814.52,2914.47 4805.61,2914.47C4788.55,2914.47 4774.66,2928.32 4774.66,2945.42C4774.66,2962.54 4788.55,2976.37 4805.61,2976.37C4818.32,2976.37 4829.21,2968.72 4833.99,2957.78L4865.53,2952.36L4865.53,2994.22L4824.64,3006.71C4819.3,3002.3 4812.52,2999.53 4805.06,2999.53C4787.98,2999.53 4774.11,3013.4 4774.11,3030.5C4774.11,3047.6 4787.98,3061.45 4805.06,3061.45C4819.11,3061.45 4830.85,3052.05 4834.62,3039.21L4865.53,3029.76L4865.53,3070.26L4820.36,3089.75C4815.48,3086.53 4809.65,3084.63 4803.36,3084.63C4786.29,3084.63 4772.41,3098.5 4772.41,3115.58C4772.41,3132.68 4786.29,3146.55 4803.36,3146.55C4818.58,3146.55 4831.19,3135.49 4833.76,3120.99L4865.53,3107.28L4865.53,3144.28L5254.43,3144.28C5270.22,3171.85 5297.54,3186.13 5339.01,3186.13C5380.49,3186.13 5407.83,3171.85 5423.64,3144.28L5813.13,3144.28L5813.13,2590.58L5779.14,2590.58Z" style="fill:white;fill-rule:nonzero;"/>
                </g>
            </g>
            <g id="g418">
                <g id="g420">
                    <path id="path422" d="M5240.67,3834.63C5240.67,3850.3 5227.98,3862.97 5212.33,3862.97C5196.68,3862.97 5183.99,3850.3 5183.99,3834.63C5183.99,3818.98 5196.68,3806.27 5212.33,3806.27C5227.98,3806.27 5240.67,3818.98 5240.67,3834.63" style="fill:white;fill-rule:nonzero;"/>
                </g>
            </g>
            <g id="g424">
                <g id="g426">
                    <path id="path428" d="M5528.11,3881.78C5528.11,3897.43 5515.4,3910.12 5499.75,3910.12C5484.1,3910.12 5471.41,3897.43 5471.41,3881.78C5471.41,3866.13 5484.1,3853.46 5499.75,3853.46C5515.4,3853.46 5528.11,3866.13 5528.11,3881.78" style="fill:white;fill-rule:nonzero;"/>
                </g>
            </g>
            <g id="g454">
                <g id="g456">
                    <path id="path458" d="M5365.64,1833.54C5365.64,1849.19 5352.97,1861.86 5337.3,1861.86C5321.63,1861.86 5308.96,1849.19 5308.96,1833.54C5308.96,1817.87 5321.63,1805.2 5337.3,1805.2C5352.97,1805.2 5365.64,1817.87 5365.64,1833.54" style="fill:white;fill-rule:nonzero;"/>
                </g>
            </g>
            <g id="g460">
                <g id="g462">
                    <path id="path464" d="M6040.11,2098.83C6039.44,2114.48 6026.24,2126.6 6010.59,2125.95C5994.96,2125.29 5982.82,2112.05 5983.47,2096.42C5984.12,2080.82 5997.37,2068.68 6012.95,2069.35C6028.6,2070 6040.76,2083.2 6040.11,2098.83" style="fill:white;fill-rule:nonzero;"/>
                </g>
            </g>
            <g id="g466">
                <g id="g468">
                    <path id="path470" d="M4618.68,3315.41C4629.6,3331.1 4635.08,3347.85 4635.04,3365.23C4635,3385.02 4628.39,3401.1 4592.95,3425.62L4490.63,3498.56L4471.78,3471.45C4471.78,3471.45 4576.63,3396.82 4578.34,3395.63C4596.42,3383.13 4604.11,3374.01 4604.13,3359.66C4604.15,3350.6 4600.83,3340.71 4594.28,3331.26C4584.02,3316.51 4570.88,3311.8 4559.27,3311.78C4548.76,3311.76 4537.42,3319.14 4517.28,3333.2L4421.04,3398.49L4402.56,3371.86L4494.12,3309.84C4519.61,3291.95 4539.9,3279.66 4558.76,3279.68C4586.28,3279.75 4606.38,3297.64 4618.68,3315.41" style="fill:white;fill-rule:nonzero;"/>
                </g>
            </g>
            <g id="g472">
                <g id="g474">
                    <path id="path476" d="M4291.65,3115.6L4486.37,3047.33L4497.12,3076.84L4385.73,3212.92L4526.51,3157.24L4536.99,3185.97L4344.53,3259.89L4333.76,3230.39L4445.73,3094.14L4302.14,3144.37L4291.65,3115.6Z" style="fill:white;fill-rule:nonzero;"/>
                </g>
            </g>
            <g id="g478">
                <g id="g480">
                    <path id="path482" d="M4262.51,2960.58L4466.33,2930.34L4471.15,2962.99L4267.37,2993.2L4262.51,2960.58Z" style="fill:white;fill-rule:nonzero;"/>
                </g>
            </g>
            <g id="g484">
                <g id="g486">
                    <path id="path488" d="M4256.47,2714.86L4257.27,2680.67L4460.66,2763.32L4459.23,2797.25L4250.39,2859.53L4250.59,2825.3L4419.94,2777.82L4256.47,2714.86Z" style="fill:white;fill-rule:nonzero;"/>
                </g>
            </g>
            <g id="g490">
                <g id="g492">
                    <path id="path494" d="M4405.82,2316.35C4417.92,2294.38 4426.51,2286.05 4439.28,2286.11C4444.03,2286.11 4449.99,2287.3 4455.99,2290.6C4463.7,2294.89 4469.62,2302.01 4471.82,2309.66C4472.68,2312.64 4473.05,2315.6 4473.01,2318.55C4472.9,2330.8 4466.09,2343.1 4458.95,2355.97L4454.73,2363.6L4396.66,2332.43L4405.82,2316.35ZM4442.46,2253.92C4413.35,2253.96 4399.88,2270.63 4381.32,2304.21L4357.12,2347.57L4538.62,2446.05L4554.27,2417.71L4478.86,2376.56L4483.27,2368.4C4495.96,2345.44 4500.35,2341.95 4532.68,2344.69L4591.48,2349.91L4608.3,2319.45L4540.54,2313.68C4526.93,2312.41 4516.2,2311.41 4507.49,2313.94C4504.59,2314.78 4501.12,2316.55 4497.76,2318.92C4498.53,2315.23 4499.94,2311.68 4499.96,2307.92C4500.02,2302.11 4499.18,2296.38 4497.45,2291.13C4493.49,2279.03 4484.86,2269.24 4471.8,2262C4462.07,2256.63 4452.34,2253.9 4442.46,2253.92" style="fill:white;fill-rule:nonzero;"/>
                </g>
            </g>
            <g id="g496">
                <g id="g498">
                    <path id="path500" d="M4667.95,1962.74L4694.19,1942.75L4819.19,2106.5L4792.98,2126.51L4667.95,1962.74Z" style="fill:white;fill-rule:nonzero;"/>
                </g>
            </g>
            <g id="g502">
                <g id="g504">
                    <path id="path506" d="M4781.08,1882.41L4914.37,1813.02L4927.39,1838.04L4875.52,1865.03L4957.66,2022.8L4928.39,2038.02L4846.27,1880.29L4794.1,1907.44L4781.08,1882.41Z" style="fill:white;fill-rule:nonzero;"/>
                </g>
            </g>
            <g id="g508">
                <g id="g510">
                    <path id="path512" d="M5113.56,1750.37L5148.31,1740.68L5120.33,1878.52L5143,1956.76L5111.58,1965.84L5089.42,1888.17L4991.61,1786.07L5025.48,1776.28L5095.87,1849.61L5113.56,1750.37Z" style="fill:white;fill-rule:nonzero;"/>
                </g>
            </g>
            <g id="g514">
                <g id="g516">
                    <path id="path518" d="M5742.25,2032.03L5846.85,1854.53L5945.28,1912.51L5930.97,1936.81L5860.69,1895.39L5831.76,1944.48L5897.92,1983.47L5883.93,2007.24L5817.76,1968.25L5770.43,2048.64L5742.25,2032.03Z" style="fill:white;fill-rule:nonzero;"/>
                </g>
            </g>
            <g id="g520">
                <g id="g522">
                    <path id="path524" d="M6271.66,2490.99L6346.66,2401.22L6358.33,2436.76L6302.47,2500.68L6385.45,2519.31L6396.44,2552.79L6282.94,2525.33L6202.29,2621.95L6190.82,2587.03L6251.69,2516.09L6160.69,2495.34L6149.59,2461.53L6271.66,2490.99Z" style="fill:white;fill-rule:nonzero;"/>
                </g>
            </g>
            <g id="g5201" serif:id="g520">
                <g id="g5221" serif:id="g522">
                    <path id="path5241" serif:id="path524" d="M6271.66,2490.99L6346.66,2401.22L6358.33,2436.76L6302.47,2500.68L6385.45,2519.31L6396.44,2552.79L6282.94,2525.33L6202.29,2621.95L6190.82,2587.03L6251.69,2516.09L6160.69,2495.34L6149.59,2461.53L6271.66,2490.99Z" style="fill:white;fill-rule:nonzero;"/>
                </g>
            </g>
            <g id="g538">
                <g id="g540">
                    <path id="path542" d="M6151.9,2359.13C6133.41,2359.13 6116.7,2351.38 6105.2,2333.2C6099.32,2323.96 6096.47,2313.98 6096.4,2303.86C6096.3,2280.58 6111.07,2256.67 6138.09,2239.49C6155.96,2228.17 6173.53,2222.58 6189.24,2222.64C6209.09,2222.64 6225.27,2231.39 6236.06,2248.41C6242.43,2258.42 6245.34,2269.11 6245.34,2279.78C6245.34,2302.53 6230.94,2324.83 6204.82,2341.38C6186.52,2352.99 6168.1,2359.13 6151.9,2359.13M6183.97,2191.28C6163.14,2191.28 6140.99,2197.89 6119.6,2211.44C6080,2236.57 6065.58,2272.52 6065.58,2298.78C6065.58,2315.78 6070.25,2332.44 6079.96,2347.77C6101.95,2382.45 6134.93,2390.92 6157.18,2390.82C6178.46,2390.69 6200.89,2383.68 6222.04,2370.21C6247.53,2354.05 6275.91,2324.04 6275.91,2283.38C6275.91,2266.5 6271.09,2249.88 6261.34,2234.49C6243.3,2206.05 6215.05,2191.28 6183.97,2191.28" style="fill:white;fill-rule:nonzero;"/>
                </g>
            </g>
            <g id="g544">
                <g id="g546">
                    <path id="path548" d="M5611.27,1950.68C5596.34,1950.68 5574.81,1943.4 5562.75,1921.38C5556.94,1910.73 5554.35,1897.82 5554.35,1884.43C5554.35,1847.55 5578.93,1795.76 5623.82,1795.76C5649.02,1795.76 5680.68,1814.55 5680.68,1861.11C5680.68,1890.82 5659.79,1950.68 5611.27,1950.68M5621.86,1766.93C5578.93,1766.93 5541.53,1795.83 5526.46,1847.2C5523.09,1858.6 5520.99,1869.91 5520.99,1880.86C5520.99,1901.43 5524.46,1917.73 5532.86,1933.11C5551.94,1967.98 5586.81,1979.88 5613.33,1979.88C5628.33,1979.88 5642.75,1976.45 5655.97,1969.23C5690.74,1950.21 5713.69,1906.08 5713.69,1863.87C5713.69,1845.55 5710.14,1828.27 5702,1813.47C5685.29,1783.09 5654.3,1766.93 5621.86,1766.93" style="fill:white;fill-rule:nonzero;"/>
                </g>
            </g>
            <g id="g550">
                <g id="g552">
                    <path id="path554" d="M4480.65,2514.14L4508.34,2521.95L4477.08,2635.11L4277.69,2580.47L4311.74,2465.97L4338.85,2473.64L4313.84,2556.13L4368.82,2571.21L4390.02,2496.29L4416.55,2503.82L4395.41,2578.51L4457.6,2595.59L4480.65,2514.14Z" style="fill:white;fill-rule:nonzero;"/>
                </g>
            </g>
            <g id="g556">
                <g id="g558">
                    <path id="path560" d="M4532.94,2083.68C4561.57,2051.61 4590.82,2053.81 4590.82,2053.81L4595.84,2080.99C4595.84,2080.99 4573.28,2081.72 4555.61,2101.51C4547.92,2110.14 4544.02,2119.14 4544.02,2127.24C4544.02,2133.93 4546.63,2139.75 4551.85,2144.44C4566.14,2157.15 4590.52,2143.01 4605.78,2136.89C4617.55,2132.03 4634.22,2125.24 4650.89,2125.24C4663.35,2125.24 4676.21,2128.77 4687.96,2139.28C4701.67,2151.54 4708.57,2166.9 4708.57,2183.06C4708.57,2200.55 4701.75,2216.11 4688.08,2231.44C4661.78,2260.88 4626.44,2264.08 4626.44,2264.08L4619.41,2236.52C4640.26,2231.7 4655.99,2223.7 4665.58,2212.97C4673.09,2204.57 4676.78,2195.14 4676.78,2186.86C4676.78,2179.08 4673.53,2171.84 4667.17,2166.15C4662.03,2161.56 4655.76,2159.9 4648.95,2160.05C4635.69,2160.05 4619.86,2167.62 4606.74,2173.06C4581.74,2183.39 4555.32,2191.73 4531.7,2170.62C4519.66,2159.88 4513.25,2146.36 4513.25,2131.36C4513.25,2115.51 4519.56,2098.66 4532.94,2083.68" style="fill:white;fill-rule:nonzero;"/>
                </g>
            </g>
            <g id="g574">
                <g id="g576">
                    <path id="path578" d="M6030.34,3730.6C5838.58,3798.42 5659.62,3793.77 5506.93,3759.67C5511.95,3691.49 5540.13,3618.61 5583.3,3605.06C5919.57,3500.74 6164.47,3187.26 6164.47,2817.75C6164.47,2363.28 5794.02,1993.55 5338.69,1993.55C4883.36,1993.55 4512.94,2363.28 4512.94,2817.75C4512.94,3070.58 4631.03,3310.76 4829.83,3466.47C4782.62,3487.24 4742.36,3520.78 4713.23,3562.56C4698.15,3552.28 4683.62,3541.65 4670.2,3530.59L4662.69,3538.14C4671.67,3549 4685.6,3563.32 4702.37,3579.4C4677.91,3620.57 4663.71,3668.49 4663.71,3719.74C4663.71,3727.72 4664.26,3735.58 4664.94,3743.37C4369.08,3527.78 4193.31,3185.03 4193.31,2817.75C4193.31,2186.23 4707.13,1672.45 5338.69,1672.45C5970.25,1672.45 6484.09,2186.22 6484.09,2817.75C6484.09,3179.51 6318.7,3511.84 6030.33,3730.6M5365.84,4000.93C5207.6,4000.93 5010.08,3947.15 4874.36,3867.07C4833.23,3842.81 4784.22,3797.72 4784.22,3720.58C4784.22,3699.75 4788.32,3679.9 4795.51,3661.62C4846.19,3703.49 4898.54,3742.74 4931.37,3760.73C4938.96,3764.88 4943.28,3766.9 4952.1,3766.9C4973.17,3766.9 4990.25,3749.74 4990.25,3728.58C4990.25,3712.4 4981.49,3699.28 4967.01,3692.94C4938.94,3680.68 4880.2,3656.4 4816.93,3623.61C4846.19,3585.01 4892.25,3559.91 4944.14,3559.91C4967.89,3559.91 4990.74,3565.01 5012.04,3575.05L5055.41,3600.33C5193.32,3684.59 5548.16,3900.61 5976.57,3781.91C5813.94,3928.65 5613.67,4000.93 5365.84,4000.93M5501.5,4097.36C5457.98,4097.36 5422.27,4128.16 5422.27,4175.42C5422.27,4221.69 5458.47,4253.48 5501.5,4253.48C5508.05,4253.48 5514.29,4252.4 5520.35,4250.82C5511.25,4316.28 5435.05,4389.52 5336.73,4422.45C5239.16,4389.79 5162.98,4315.97 5152.9,4250.86C5158.94,4252.44 5165.14,4253.48 5171.65,4253.48C5218.59,4253.48 5250.87,4220.63 5250.87,4175.42C5250.87,4132.31 5217,4098.48 5173.34,4097.52C5186.68,4073.18 5199.44,4047.29 5208.88,4019.52C5262.99,4028.93 5316.28,4034.09 5365.84,4034.09C5406.48,4034.09 5445.94,4031.88 5484.5,4027.97C5489.6,4050.31 5497.19,4073.65 5506.09,4097.76C5504.56,4097.66 5503.07,4097.36 5501.5,4097.36M4941.63,3476.02C5023.08,3476.02 5099.26,3517.76 5143.92,3584.68C5104.79,3574.74 5066.41,3561.85 5028.91,3545.85L5028.81,3546.1L5027.56,3545.39C5001.37,3533.04 4973.31,3526.78 4944.14,3526.78C4879.28,3526.78 4821.86,3558.61 4786.45,3607.25C4771.51,3598.98 4756.6,3590.29 4741.95,3581.19C4785.88,3517.72 4858.96,3476.02 4941.63,3476.02M5263.95,3638.5C5253.91,3645.99 5245.81,3654.95 5240.06,3664.8C5210.19,3650.3 5172.67,3631.61 5148.12,3617.88C5182.89,3625.57 5228.24,3635.32 5263.95,3638.5M5514.66,3622.96C5490.95,3656.78 5476.83,3703.81 5472.63,3751.43C5397.77,3732.15 5329.87,3706.24 5270.6,3679.21C5281.88,3657.42 5314.1,3641.97 5338.68,3641.97C5399.08,3641.97 5457.92,3635.3 5514.66,3622.96M5338.68,3608.84C5288.15,3608.84 5238.32,3603.98 5189.5,3594.66C5142.41,3502.32 5045.91,3442.88 4941.63,3442.88C4916.04,3442.88 4891.34,3446.64 4867.75,3453.12C4667.38,3304.21 4547.84,3067.39 4547.84,2817.75C4547.84,2381.54 4902.6,2026.68 5338.68,2026.68C5774.75,2026.68 6129.55,2381.54 6129.55,2817.75C6129.55,3253.95 5774.75,3608.84 5338.68,3608.84M4941.63,3963.43C4807.62,3963.43 4698.61,3854.12 4698.61,3719.74C4698.61,3677.64 4709.34,3637.99 4728.16,3603.41C4740.66,3614.77 4754.03,3626.57 4767.92,3638.46C4756.13,3663.43 4749.31,3691.2 4749.31,3720.58C4749.31,3793.68 4786.18,3854.08 4855.94,3895.21C4895.99,3918.85 4941.34,3940.15 4989.35,3958.74C4973.78,3961.84 4957.83,3963.43 4941.63,3963.43M6519,2817.74C6519,2167.96 5989.51,1639.29 5338.69,1639.29C4687.89,1639.29 4158.4,2167.97 4158.4,2817.74C4158.4,3207.58 4350.9,3570.95 4673.42,3791.11C4705.17,3909.22 4813.22,3996.56 4941.63,3996.56C4976.4,3996.56 5010.04,3989.99 5042.04,3977.63C5085.25,3991.89 5129.85,4003.68 5174.35,4012.87C5161.82,4048.63 5143.54,4082.56 5126.1,4111.92C5126.1,4111.92 5126.48,4111.84 5127.07,4111.72C5126.75,4111.94 5126.38,4112.1 5126.05,4112.33L5150.66,4136.91C5156.92,4133.48 5164.02,4131.34 5171.65,4131.34C5195.95,4131.34 5215.72,4151.11 5215.72,4175.41C5215.72,4199.73 5195.95,4219.48 5171.65,4219.48C5150.45,4219.48 5131.85,4205.89 5122.07,4191.35C5122.07,4191.35 5116.34,4211.18 5116.34,4237.29C5116.18,4321.96 5208.56,4418.67 5336.73,4459.46C5464.76,4419.59 5557.16,4322.19 5557.1,4237.46C5557.1,4208.32 5551.37,4191.35 5551.37,4191.35C5541.53,4203.22 5525.58,4219.48 5501.5,4219.48C5477.2,4219.48 5457.43,4199.73 5457.43,4175.41C5457.43,4151.11 5477.2,4131.34 5501.5,4131.34C5510.03,4131.34 5517.93,4133.89 5524.66,4138.1L5548.51,4114.24C5549.06,4114.39 5549.41,4114.47 5549.41,4114.47C5535.92,4082.19 5526.07,4052.53 5519.38,4024.07C5731.58,3995.48 5910.64,3905.67 6053.03,3755.98L6052.93,3755.83C6349.13,3530.75 6519,3189.3 6519,2817.74" style="fill:white;fill-rule:nonzero;"/>
                </g>
            </g>
            <g transform="matrix(0.083917,0.996473,-0.905884,0.0762881,6210.52,2646.86)">
                <g transform="matrix(320.833,0,0,320.833,0,0)">
                    <path d="M0.629,-0L0.535,-0L0.535,-0.329L0.176,-0.329L0.176,-0L0.083,-0L0.083,-0.711L0.176,-0.711L0.176,-0.405L0.535,-0.405L0.535,-0.711L0.629,-0.711L0.629,-0Z" style="fill:white;fill-rule:nonzero;"/>
                </g>
            </g>
            <g transform="matrix(0.083917,0.996473,-0.905884,0.0762881,6210.52,2646.86)">
                <g transform="matrix(320.833,0,0,320.833,0,0)">
                    <path d="M0.629,-0L0.535,-0L0.535,-0.329L0.176,-0.329L0.176,-0L0.083,-0L0.083,-0.711L0.176,-0.711L0.176,-0.405L0.535,-0.405L0.535,-0.711L0.629,-0.711L0.629,-0Z" style="fill:white;fill-rule:nonzero;"/>
                </g>
            </g>
            <g transform="matrix(-0.116876,0.993147,-0.90286,-0.106251,6220.37,2853.02)">
                <g transform="matrix(320.833,0,0,320.833,0,0)">
                    <path d="M0.629,-0.333C0.629,-0.263 0.618,-0.202 0.594,-0.15C0.571,-0.098 0.538,-0.059 0.495,-0.031C0.452,-0.004 0.402,0.01 0.344,0.01C0.288,0.01 0.239,-0.004 0.195,-0.031C0.152,-0.059 0.118,-0.098 0.094,-0.149C0.071,-0.2 0.058,-0.259 0.058,-0.326L0.058,-0.377C0.058,-0.446 0.069,-0.506 0.093,-0.559C0.117,-0.611 0.151,-0.651 0.194,-0.679C0.238,-0.707 0.287,-0.721 0.343,-0.721C0.4,-0.721 0.45,-0.707 0.494,-0.679C0.537,-0.652 0.571,-0.612 0.594,-0.56C0.618,-0.508 0.629,-0.447 0.629,-0.377L0.629,-0.333ZM0.536,-0.378C0.536,-0.463 0.519,-0.527 0.485,-0.573C0.451,-0.618 0.404,-0.64 0.343,-0.64C0.284,-0.64 0.237,-0.618 0.203,-0.573C0.169,-0.527 0.152,-0.465 0.151,-0.385L0.151,-0.333C0.151,-0.251 0.168,-0.187 0.202,-0.14C0.237,-0.093 0.284,-0.07 0.344,-0.07C0.405,-0.07 0.452,-0.092 0.485,-0.136C0.518,-0.18 0.535,-0.243 0.536,-0.326L0.536,-0.378Z" style="fill:white;fill-rule:nonzero;"/>
                </g>
            </g>
            <g transform="matrix(-0.400348,0.916363,-0.833057,-0.363953,6192.49,3049.72)">
                <g transform="matrix(320.833,0,0,320.833,0,0)">
                    <path d="M0.343,-0.288L0.176,-0.288L0.176,-0L0.082,-0L0.082,-0.711L0.317,-0.711C0.397,-0.711 0.459,-0.693 0.502,-0.656C0.545,-0.62 0.567,-0.567 0.567,-0.497C0.567,-0.453 0.555,-0.414 0.531,-0.381C0.507,-0.348 0.474,-0.324 0.431,-0.308L0.598,-0.006L0.598,-0L0.498,-0L0.343,-0.288ZM0.176,-0.364L0.32,-0.364C0.367,-0.364 0.404,-0.376 0.431,-0.4C0.459,-0.424 0.473,-0.457 0.473,-0.497C0.473,-0.541 0.46,-0.575 0.433,-0.598C0.407,-0.622 0.369,-0.633 0.32,-0.634L0.176,-0.634L0.176,-0.364Z" style="fill:white;fill-rule:nonzero;"/>
                </g>
            </g>
            <g transform="matrix(-0.658541,0.752545,-0.676367,-0.591879,6126.25,3258.45)">
                <g transform="matrix(320.833,0,0,320.833,0,0)">
                    <path d="M0.292,-0.317C0.212,-0.34 0.153,-0.368 0.116,-0.402C0.08,-0.436 0.062,-0.477 0.062,-0.527C0.062,-0.583 0.084,-0.629 0.129,-0.666C0.173,-0.702 0.232,-0.721 0.303,-0.721C0.352,-0.721 0.396,-0.711 0.434,-0.692C0.472,-0.674 0.502,-0.647 0.523,-0.614C0.544,-0.581 0.554,-0.545 0.554,-0.505L0.46,-0.505C0.46,-0.548 0.446,-0.582 0.419,-0.607C0.392,-0.631 0.353,-0.644 0.303,-0.644C0.257,-0.644 0.221,-0.633 0.195,-0.613C0.169,-0.593 0.156,-0.564 0.156,-0.528C0.156,-0.499 0.169,-0.475 0.193,-0.455C0.218,-0.435 0.26,-0.417 0.319,-0.4C0.378,-0.383 0.424,-0.365 0.457,-0.345C0.491,-0.325 0.515,-0.302 0.531,-0.275C0.548,-0.248 0.556,-0.217 0.556,-0.181C0.556,-0.123 0.533,-0.077 0.488,-0.042C0.443,-0.008 0.383,0.01 0.308,0.01C0.259,0.01 0.214,0 0.171,-0.018C0.129,-0.037 0.096,-0.063 0.073,-0.095C0.051,-0.128 0.039,-0.165 0.039,-0.206L0.133,-0.206C0.133,-0.163 0.149,-0.129 0.181,-0.104C0.213,-0.079 0.255,-0.067 0.308,-0.067C0.358,-0.067 0.396,-0.077 0.422,-0.097C0.448,-0.117 0.461,-0.145 0.461,-0.18C0.461,-0.215 0.449,-0.241 0.425,-0.26C0.4,-0.28 0.356,-0.298 0.292,-0.317Z" style="fill:white;fill-rule:nonzero;"/>
                </g>
            </g>
            <g transform="matrix(-0.767754,0.640745,-0.575884,-0.690036,5988.45,3413)">
                <g transform="matrix(320.833,0,0,320.833,0,0)">
                    <path d="M0.484,-0.329L0.176,-0.329L0.176,-0.077L0.534,-0.077L0.534,-0L0.083,-0L0.083,-0.711L0.529,-0.711L0.529,-0.634L0.176,-0.634L0.176,-0.405L0.484,-0.405L0.484,-0.329Z" style="fill:white;fill-rule:nonzero;"/>
                </g>
            </g>
            <g transform="matrix(1,0,0,1,4972.37,2697.32)">
                <g transform="matrix(85.417,0,0,85.417,0,0)">
                    <path d="M0.586,-0L0.196,-0.551L0.196,-0.118C0.196,-0.104 0.197,-0.092 0.2,-0.084C0.203,-0.076 0.206,-0.069 0.211,-0.064C0.215,-0.06 0.221,-0.057 0.227,-0.055C0.234,-0.054 0.24,-0.053 0.247,-0.053L0.289,-0.053L0.289,-0L0.028,-0L0.028,-0.053L0.07,-0.053C0.077,-0.053 0.084,-0.054 0.09,-0.055C0.096,-0.057 0.101,-0.06 0.106,-0.064C0.111,-0.069 0.115,-0.076 0.117,-0.084C0.12,-0.092 0.121,-0.104 0.121,-0.118L0.121,-0.6C0.121,-0.613 0.12,-0.624 0.117,-0.632C0.114,-0.64 0.11,-0.646 0.106,-0.65C0.101,-0.655 0.096,-0.657 0.089,-0.659C0.083,-0.66 0.077,-0.661 0.07,-0.661L0.028,-0.661L0.028,-0.714L0.25,-0.714L0.603,-0.215L0.603,-0.6C0.603,-0.613 0.602,-0.624 0.599,-0.632C0.596,-0.64 0.592,-0.646 0.588,-0.65C0.583,-0.655 0.577,-0.657 0.571,-0.659C0.565,-0.66 0.559,-0.661 0.552,-0.661L0.51,-0.661L0.51,-0.714L0.771,-0.714L0.771,-0.661L0.729,-0.661C0.722,-0.661 0.716,-0.66 0.709,-0.659C0.703,-0.657 0.698,-0.654 0.693,-0.65C0.688,-0.645 0.685,-0.639 0.682,-0.63C0.68,-0.622 0.678,-0.611 0.678,-0.596L0.678,-0L0.586,-0Z" style="fill:rgb(15,31,71);fill-rule:nonzero;"/>
                </g>
                <g transform="matrix(85.417,0,0,85.417,67.3159,0)">
                    <path d="M0.732,-0.358C0.732,-0.303 0.725,-0.253 0.71,-0.208C0.695,-0.162 0.673,-0.124 0.644,-0.091C0.615,-0.059 0.58,-0.034 0.538,-0.017C0.497,0.001 0.448,0.01 0.394,0.01C0.337,0.01 0.287,0.001 0.245,-0.017C0.202,-0.034 0.167,-0.059 0.139,-0.091C0.111,-0.124 0.09,-0.162 0.076,-0.208C0.062,-0.253 0.055,-0.304 0.055,-0.359C0.055,-0.414 0.062,-0.464 0.076,-0.51C0.09,-0.555 0.111,-0.593 0.139,-0.625C0.168,-0.657 0.203,-0.682 0.245,-0.699C0.288,-0.716 0.338,-0.725 0.395,-0.725C0.449,-0.725 0.497,-0.716 0.539,-0.699C0.581,-0.682 0.616,-0.657 0.645,-0.625C0.673,-0.593 0.695,-0.554 0.71,-0.509C0.725,-0.464 0.732,-0.414 0.732,-0.358ZM0.223,-0.358C0.223,-0.31 0.226,-0.267 0.232,-0.23C0.239,-0.193 0.249,-0.161 0.262,-0.135C0.276,-0.109 0.294,-0.089 0.315,-0.076C0.337,-0.062 0.363,-0.055 0.394,-0.055C0.425,-0.055 0.452,-0.062 0.473,-0.076C0.495,-0.089 0.513,-0.109 0.526,-0.135C0.539,-0.161 0.549,-0.193 0.555,-0.23C0.561,-0.267 0.564,-0.31 0.564,-0.358C0.564,-0.406 0.561,-0.448 0.555,-0.486C0.549,-0.523 0.539,-0.555 0.526,-0.581C0.513,-0.607 0.495,-0.626 0.474,-0.64C0.452,-0.653 0.426,-0.66 0.395,-0.66C0.364,-0.66 0.337,-0.653 0.315,-0.64C0.294,-0.626 0.276,-0.607 0.262,-0.581C0.249,-0.555 0.239,-0.523 0.232,-0.486C0.226,-0.448 0.223,-0.406 0.223,-0.358Z" style="fill:rgb(15,31,71);fill-rule:nonzero;"/>
                </g>
                <g transform="matrix(85.417,0,0,85.417,134.548,0)">
                    <path d="M0.028,-0L0.028,-0.053L0.07,-0.053C0.077,-0.053 0.084,-0.054 0.09,-0.055C0.097,-0.057 0.102,-0.06 0.106,-0.064C0.111,-0.069 0.115,-0.076 0.117,-0.084C0.12,-0.092 0.121,-0.104 0.121,-0.118L0.121,-0.596C0.121,-0.611 0.12,-0.622 0.117,-0.63C0.115,-0.639 0.111,-0.645 0.106,-0.65C0.102,-0.654 0.097,-0.657 0.09,-0.659C0.084,-0.66 0.077,-0.661 0.07,-0.661L0.028,-0.661L0.028,-0.714L0.373,-0.714L0.373,-0.661L0.331,-0.661C0.324,-0.661 0.318,-0.66 0.311,-0.659C0.305,-0.657 0.299,-0.655 0.295,-0.65C0.29,-0.646 0.287,-0.64 0.284,-0.632C0.281,-0.624 0.28,-0.613 0.28,-0.6L0.28,-0.061L0.466,-0.061C0.489,-0.061 0.507,-0.068 0.521,-0.083C0.534,-0.098 0.543,-0.12 0.549,-0.148L0.565,-0.223L0.621,-0.223L0.614,-0L0.028,-0Z" style="fill:rgb(15,31,71);fill-rule:nonzero;"/>
                </g>
                <g transform="matrix(85.417,0,0,85.417,190.395,0)">
                    <path d="M0.028,-0L0.028,-0.053L0.07,-0.053C0.077,-0.053 0.084,-0.054 0.09,-0.055C0.097,-0.057 0.102,-0.06 0.106,-0.064C0.111,-0.069 0.115,-0.076 0.117,-0.084C0.12,-0.092 0.121,-0.104 0.121,-0.118L0.121,-0.596C0.121,-0.61 0.12,-0.621 0.117,-0.63C0.115,-0.638 0.111,-0.645 0.106,-0.649C0.102,-0.654 0.097,-0.657 0.09,-0.658C0.084,-0.66 0.077,-0.661 0.07,-0.661L0.028,-0.661L0.028,-0.714L0.373,-0.714L0.373,-0.661L0.331,-0.661C0.324,-0.661 0.317,-0.66 0.311,-0.658C0.304,-0.657 0.299,-0.654 0.294,-0.649C0.29,-0.645 0.286,-0.638 0.284,-0.63C0.281,-0.621 0.28,-0.61 0.28,-0.596L0.28,-0.118C0.28,-0.104 0.281,-0.092 0.284,-0.084C0.286,-0.076 0.29,-0.069 0.294,-0.064C0.299,-0.06 0.304,-0.057 0.311,-0.055C0.317,-0.054 0.324,-0.053 0.331,-0.053L0.373,-0.053L0.373,-0L0.028,-0Z" style="fill:rgb(15,31,71);fill-rule:nonzero;"/>
                </g>
                <g transform="matrix(85.417,0,0,85.417,224.637,0)">
                    <path d="M0.406,-0.118C0.406,-0.104 0.407,-0.092 0.41,-0.084C0.412,-0.076 0.416,-0.069 0.421,-0.064C0.425,-0.06 0.431,-0.057 0.437,-0.055C0.443,-0.054 0.45,-0.053 0.457,-0.053L0.499,-0.053L0.499,-0L0.154,-0L0.154,-0.053L0.196,-0.053C0.203,-0.053 0.21,-0.054 0.216,-0.055C0.222,-0.057 0.228,-0.06 0.232,-0.064C0.237,-0.069 0.241,-0.076 0.243,-0.084C0.246,-0.092 0.247,-0.104 0.247,-0.118L0.247,-0.653L0.167,-0.653C0.152,-0.653 0.139,-0.651 0.129,-0.648C0.119,-0.645 0.111,-0.64 0.105,-0.634C0.098,-0.628 0.094,-0.621 0.091,-0.612C0.087,-0.603 0.085,-0.593 0.084,-0.582L0.077,-0.52L0.01,-0.52L0.015,-0.714L0.638,-0.714L0.643,-0.52L0.576,-0.52L0.569,-0.582C0.568,-0.593 0.565,-0.603 0.562,-0.612C0.559,-0.621 0.554,-0.628 0.548,-0.634C0.542,-0.64 0.534,-0.645 0.523,-0.648C0.513,-0.651 0.501,-0.653 0.486,-0.653L0.406,-0.653L0.406,-0.118Z" style="fill:rgb(15,31,71);fill-rule:nonzero;"/>
                </g>
                <g transform="matrix(85.417,0,0,85.417,280.4,0)">
                    <path d="M0.28,-0.061L0.48,-0.061C0.49,-0.061 0.499,-0.063 0.506,-0.067C0.513,-0.07 0.519,-0.076 0.524,-0.083C0.53,-0.089 0.534,-0.097 0.537,-0.107C0.54,-0.116 0.542,-0.126 0.544,-0.137L0.552,-0.184L0.621,-0.184L0.614,-0L0.028,-0L0.028,-0.053L0.07,-0.053C0.077,-0.053 0.084,-0.054 0.09,-0.055C0.096,-0.056 0.101,-0.059 0.106,-0.063C0.111,-0.067 0.115,-0.073 0.117,-0.081C0.12,-0.089 0.121,-0.1 0.121,-0.113L0.121,-0.596C0.121,-0.611 0.12,-0.622 0.117,-0.63C0.115,-0.639 0.111,-0.645 0.106,-0.65C0.102,-0.654 0.097,-0.657 0.09,-0.659C0.084,-0.66 0.077,-0.661 0.07,-0.661L0.028,-0.661L0.028,-0.714L0.583,-0.714L0.587,-0.53L0.517,-0.53L0.512,-0.577C0.51,-0.602 0.503,-0.62 0.494,-0.633C0.484,-0.646 0.469,-0.653 0.448,-0.653L0.28,-0.653L0.28,-0.403L0.517,-0.403L0.517,-0.343L0.28,-0.343L0.28,-0.061Z" style="fill:rgb(15,31,71);fill-rule:nonzero;"/>
                </g>
            </g>
            <g>
                <g transform="matrix(1,0,0,1,5439.89,2696.43)">
                    <g transform="matrix(85.417,0,0,85.417,0,0)">
                        <path d="M0.698,-0.661L0.65,-0.661C0.645,-0.661 0.641,-0.66 0.638,-0.658C0.634,-0.656 0.631,-0.653 0.627,-0.647C0.623,-0.642 0.62,-0.634 0.616,-0.625C0.612,-0.616 0.607,-0.603 0.602,-0.588L0.398,-0L0.298,-0L0.085,-0.613C0.082,-0.622 0.078,-0.63 0.073,-0.636C0.067,-0.643 0.062,-0.648 0.056,-0.651C0.051,-0.655 0.045,-0.657 0.039,-0.659C0.033,-0.66 0.028,-0.661 0.023,-0.661L0,-0.661L0,-0.714L0.33,-0.714L0.33,-0.661L0.284,-0.661C0.279,-0.661 0.275,-0.661 0.27,-0.659C0.265,-0.658 0.261,-0.656 0.258,-0.654C0.254,-0.651 0.251,-0.648 0.249,-0.644C0.246,-0.639 0.245,-0.634 0.245,-0.628C0.245,-0.621 0.246,-0.614 0.248,-0.606C0.25,-0.597 0.252,-0.59 0.254,-0.585L0.356,-0.277C0.359,-0.269 0.361,-0.261 0.364,-0.25C0.367,-0.24 0.369,-0.23 0.372,-0.219C0.375,-0.208 0.377,-0.197 0.379,-0.186C0.381,-0.175 0.383,-0.165 0.384,-0.156C0.385,-0.161 0.386,-0.169 0.389,-0.178C0.391,-0.188 0.394,-0.198 0.397,-0.21C0.401,-0.221 0.404,-0.232 0.407,-0.243C0.411,-0.255 0.414,-0.265 0.417,-0.274L0.52,-0.578C0.521,-0.582 0.523,-0.586 0.524,-0.59C0.526,-0.594 0.527,-0.599 0.528,-0.604C0.529,-0.608 0.53,-0.612 0.531,-0.617C0.532,-0.621 0.532,-0.624 0.532,-0.627C0.532,-0.638 0.529,-0.646 0.521,-0.652C0.514,-0.658 0.504,-0.661 0.492,-0.661L0.44,-0.661L0.44,-0.714L0.698,-0.714L0.698,-0.661Z" style="fill:rgb(15,31,71);fill-rule:nonzero;"/>
                    </g>
                    <g transform="matrix(85.417,0,0,85.417,59.6418,0)">
                        <path d="M0.028,-0L0.028,-0.053L0.07,-0.053C0.077,-0.053 0.084,-0.054 0.09,-0.055C0.097,-0.057 0.102,-0.06 0.106,-0.064C0.111,-0.069 0.115,-0.076 0.117,-0.084C0.12,-0.092 0.121,-0.104 0.121,-0.118L0.121,-0.596C0.121,-0.61 0.12,-0.621 0.117,-0.63C0.115,-0.638 0.111,-0.645 0.106,-0.649C0.102,-0.654 0.097,-0.657 0.09,-0.658C0.084,-0.66 0.077,-0.661 0.07,-0.661L0.028,-0.661L0.028,-0.714L0.373,-0.714L0.373,-0.661L0.331,-0.661C0.324,-0.661 0.317,-0.66 0.311,-0.658C0.304,-0.657 0.299,-0.654 0.294,-0.649C0.29,-0.645 0.286,-0.638 0.284,-0.63C0.281,-0.621 0.28,-0.61 0.28,-0.596L0.28,-0.118C0.28,-0.104 0.281,-0.092 0.284,-0.084C0.286,-0.076 0.29,-0.069 0.294,-0.064C0.299,-0.06 0.304,-0.057 0.311,-0.055C0.317,-0.054 0.324,-0.053 0.331,-0.053L0.373,-0.053L0.373,-0L0.028,-0Z" style="fill:rgb(15,31,71);fill-rule:nonzero;"/>
                    </g>
                    <g transform="matrix(85.417,0,0,85.417,93.8836,0)">
                        <path d="M0.406,-0.118C0.406,-0.104 0.407,-0.092 0.41,-0.084C0.412,-0.076 0.416,-0.069 0.421,-0.064C0.425,-0.06 0.431,-0.057 0.437,-0.055C0.443,-0.054 0.45,-0.053 0.457,-0.053L0.499,-0.053L0.499,-0L0.154,-0L0.154,-0.053L0.196,-0.053C0.203,-0.053 0.21,-0.054 0.216,-0.055C0.222,-0.057 0.228,-0.06 0.232,-0.064C0.237,-0.069 0.241,-0.076 0.243,-0.084C0.246,-0.092 0.247,-0.104 0.247,-0.118L0.247,-0.653L0.167,-0.653C0.152,-0.653 0.139,-0.651 0.129,-0.648C0.119,-0.645 0.111,-0.64 0.105,-0.634C0.098,-0.628 0.094,-0.621 0.091,-0.612C0.087,-0.603 0.085,-0.593 0.084,-0.582L0.077,-0.52L0.01,-0.52L0.015,-0.714L0.638,-0.714L0.643,-0.52L0.576,-0.52L0.569,-0.582C0.568,-0.593 0.565,-0.603 0.562,-0.612C0.559,-0.621 0.554,-0.628 0.548,-0.634C0.542,-0.64 0.534,-0.645 0.523,-0.648C0.513,-0.651 0.501,-0.653 0.486,-0.653L0.406,-0.653L0.406,-0.118Z" style="fill:rgb(15,31,71);fill-rule:nonzero;"/>
                    </g>
                </g>
                <g transform="matrix(1,0,0,1,5584.4,2696.43)">
                    <g transform="matrix(85.417,0,0,85.417,0,0)">
                        <path d="M0.218,-0.235L0.189,-0.149C0.186,-0.141 0.184,-0.131 0.181,-0.12C0.178,-0.109 0.177,-0.1 0.177,-0.092C0.177,-0.085 0.178,-0.08 0.181,-0.075C0.183,-0.07 0.187,-0.066 0.191,-0.063C0.195,-0.06 0.2,-0.057 0.205,-0.056C0.211,-0.054 0.216,-0.053 0.222,-0.053L0.264,-0.053L0.264,-0L0.004,-0L0.004,-0.053L0.016,-0.053C0.025,-0.053 0.033,-0.054 0.04,-0.056C0.048,-0.058 0.054,-0.062 0.061,-0.067C0.067,-0.073 0.073,-0.08 0.079,-0.089C0.085,-0.099 0.09,-0.111 0.096,-0.126L0.313,-0.714L0.45,-0.714L0.659,-0.125C0.664,-0.111 0.669,-0.099 0.675,-0.09C0.68,-0.081 0.686,-0.073 0.692,-0.068C0.698,-0.063 0.705,-0.059 0.712,-0.057C0.72,-0.054 0.727,-0.053 0.735,-0.053L0.753,-0.053L0.753,-0L0.423,-0L0.423,-0.053L0.462,-0.053C0.467,-0.053 0.472,-0.054 0.477,-0.055C0.482,-0.057 0.487,-0.059 0.491,-0.062C0.495,-0.065 0.498,-0.069 0.501,-0.074C0.504,-0.079 0.505,-0.085 0.505,-0.092C0.505,-0.1 0.504,-0.108 0.502,-0.115C0.5,-0.123 0.498,-0.129 0.496,-0.135L0.461,-0.235L0.218,-0.235ZM0.388,-0.46C0.385,-0.471 0.381,-0.483 0.377,-0.496C0.373,-0.508 0.37,-0.521 0.366,-0.534C0.362,-0.547 0.359,-0.56 0.355,-0.573C0.352,-0.586 0.349,-0.598 0.346,-0.61C0.343,-0.6 0.34,-0.589 0.336,-0.577C0.332,-0.565 0.328,-0.552 0.323,-0.54C0.319,-0.527 0.315,-0.514 0.31,-0.501C0.306,-0.489 0.302,-0.477 0.298,-0.465L0.239,-0.296L0.441,-0.296L0.388,-0.46Z" style="fill:rgb(15,31,71);fill-rule:nonzero;"/>
                    </g>
                </g>
            </g>
            <g>
                <g transform="matrix(1,0,0,1,4974.69,2962.48)">
                    <g transform="matrix(91.667,0,0,91.667,0,0)">
                        <path d="M0.423,0.01C0.361,0.01 0.307,0.001 0.261,-0.017C0.215,-0.034 0.177,-0.059 0.146,-0.091C0.115,-0.124 0.093,-0.162 0.078,-0.208C0.063,-0.253 0.055,-0.303 0.055,-0.358C0.055,-0.412 0.063,-0.461 0.079,-0.506C0.095,-0.551 0.119,-0.59 0.15,-0.622C0.181,-0.654 0.22,-0.679 0.267,-0.697C0.313,-0.715 0.367,-0.724 0.428,-0.724C0.47,-0.724 0.506,-0.721 0.537,-0.715C0.568,-0.709 0.594,-0.701 0.615,-0.69C0.636,-0.68 0.652,-0.668 0.663,-0.654C0.673,-0.639 0.678,-0.624 0.678,-0.608C0.678,-0.596 0.675,-0.585 0.67,-0.575C0.664,-0.565 0.656,-0.556 0.645,-0.548C0.634,-0.54 0.62,-0.534 0.604,-0.53C0.589,-0.525 0.57,-0.523 0.549,-0.523C0.549,-0.543 0.546,-0.562 0.542,-0.579C0.537,-0.596 0.529,-0.61 0.519,-0.622C0.509,-0.634 0.496,-0.643 0.48,-0.65C0.464,-0.657 0.446,-0.66 0.425,-0.66C0.388,-0.66 0.357,-0.653 0.332,-0.64C0.306,-0.627 0.285,-0.607 0.269,-0.582C0.253,-0.556 0.241,-0.524 0.234,-0.487C0.227,-0.449 0.223,-0.406 0.223,-0.358C0.223,-0.31 0.227,-0.267 0.235,-0.23C0.242,-0.192 0.255,-0.161 0.272,-0.136C0.289,-0.11 0.311,-0.091 0.338,-0.078C0.365,-0.065 0.399,-0.058 0.438,-0.058C0.45,-0.058 0.463,-0.059 0.475,-0.06C0.487,-0.061 0.5,-0.062 0.511,-0.065L0.511,-0.212C0.511,-0.239 0.505,-0.257 0.493,-0.268C0.481,-0.278 0.463,-0.283 0.44,-0.283L0.427,-0.283L0.427,-0.336L0.741,-0.336L0.741,-0.283L0.728,-0.283C0.718,-0.283 0.709,-0.282 0.702,-0.28C0.694,-0.277 0.688,-0.273 0.683,-0.267C0.678,-0.261 0.675,-0.253 0.672,-0.244C0.67,-0.234 0.669,-0.222 0.669,-0.208L0.669,-0.044C0.63,-0.026 0.59,-0.013 0.551,-0.004C0.511,0.005 0.468,0.01 0.423,0.01Z" style="fill:rgb(15,31,71);fill-rule:nonzero;"/>
                    </g>
                    <g transform="matrix(91.667,0,0,91.667,70.4959,0)">
                        <path d="M0.028,-0.053L0.07,-0.053C0.077,-0.053 0.083,-0.054 0.089,-0.055C0.096,-0.056 0.101,-0.059 0.106,-0.063C0.11,-0.067 0.114,-0.073 0.117,-0.081C0.12,-0.089 0.121,-0.1 0.121,-0.113L0.121,-0.6C0.121,-0.613 0.12,-0.624 0.117,-0.632C0.114,-0.64 0.11,-0.646 0.106,-0.65C0.101,-0.655 0.096,-0.657 0.089,-0.659C0.083,-0.66 0.077,-0.661 0.07,-0.661L0.028,-0.661L0.028,-0.714L0.35,-0.714C0.444,-0.714 0.514,-0.698 0.558,-0.667C0.602,-0.635 0.624,-0.589 0.624,-0.529C0.624,-0.502 0.62,-0.479 0.612,-0.458C0.604,-0.438 0.594,-0.42 0.581,-0.405C0.568,-0.389 0.554,-0.377 0.538,-0.366C0.521,-0.355 0.505,-0.347 0.488,-0.34L0.607,-0.135C0.615,-0.12 0.624,-0.108 0.632,-0.098C0.64,-0.088 0.648,-0.079 0.656,-0.073C0.663,-0.066 0.672,-0.061 0.68,-0.058C0.689,-0.055 0.698,-0.053 0.707,-0.053L0.711,-0.053L0.711,-0L0.678,-0C0.648,-0 0.622,-0.001 0.6,-0.003C0.578,-0.006 0.558,-0.01 0.541,-0.017C0.524,-0.024 0.51,-0.033 0.498,-0.044C0.486,-0.056 0.474,-0.071 0.464,-0.09L0.345,-0.31L0.279,-0.31L0.279,-0.113C0.279,-0.1 0.28,-0.089 0.283,-0.081C0.286,-0.073 0.289,-0.067 0.294,-0.063C0.299,-0.059 0.304,-0.056 0.311,-0.055C0.317,-0.054 0.323,-0.053 0.33,-0.053L0.373,-0.053L0.373,-0L0.028,-0L0.028,-0.053ZM0.279,-0.368L0.335,-0.368C0.358,-0.368 0.377,-0.371 0.393,-0.377C0.408,-0.384 0.421,-0.393 0.43,-0.405C0.439,-0.417 0.446,-0.433 0.45,-0.451C0.454,-0.469 0.456,-0.491 0.456,-0.515C0.456,-0.541 0.454,-0.562 0.449,-0.58C0.445,-0.597 0.438,-0.612 0.428,-0.623C0.418,-0.634 0.405,-0.642 0.39,-0.647C0.374,-0.652 0.355,-0.655 0.333,-0.655L0.279,-0.655L0.279,-0.368Z" style="fill:rgb(15,31,71);fill-rule:nonzero;"/>
                    </g>
                    <g transform="matrix(91.667,0,0,91.667,135.307,0)">
                        <path d="M0.218,-0.235L0.189,-0.149C0.186,-0.141 0.184,-0.131 0.181,-0.12C0.178,-0.109 0.177,-0.1 0.177,-0.092C0.177,-0.085 0.178,-0.08 0.181,-0.075C0.183,-0.07 0.187,-0.066 0.191,-0.063C0.195,-0.06 0.2,-0.057 0.205,-0.056C0.211,-0.054 0.216,-0.053 0.222,-0.053L0.264,-0.053L0.264,-0L0.004,-0L0.004,-0.053L0.016,-0.053C0.025,-0.053 0.033,-0.054 0.04,-0.056C0.048,-0.058 0.054,-0.062 0.061,-0.067C0.067,-0.073 0.073,-0.08 0.079,-0.089C0.085,-0.099 0.09,-0.111 0.096,-0.126L0.313,-0.714L0.45,-0.714L0.659,-0.125C0.664,-0.111 0.669,-0.099 0.675,-0.09C0.68,-0.081 0.686,-0.073 0.692,-0.068C0.698,-0.063 0.705,-0.059 0.712,-0.057C0.72,-0.054 0.727,-0.053 0.735,-0.053L0.753,-0.053L0.753,-0L0.423,-0L0.423,-0.053L0.462,-0.053C0.467,-0.053 0.472,-0.054 0.477,-0.055C0.482,-0.057 0.487,-0.059 0.491,-0.062C0.495,-0.065 0.498,-0.069 0.501,-0.074C0.504,-0.079 0.505,-0.085 0.505,-0.092C0.505,-0.1 0.504,-0.108 0.502,-0.115C0.5,-0.123 0.498,-0.129 0.496,-0.135L0.461,-0.235L0.218,-0.235ZM0.388,-0.46C0.385,-0.471 0.381,-0.483 0.377,-0.496C0.373,-0.508 0.37,-0.521 0.366,-0.534C0.362,-0.547 0.359,-0.56 0.355,-0.573C0.352,-0.586 0.349,-0.598 0.346,-0.61C0.343,-0.6 0.34,-0.589 0.336,-0.577C0.332,-0.565 0.328,-0.552 0.323,-0.54C0.319,-0.527 0.315,-0.514 0.31,-0.501C0.306,-0.489 0.302,-0.477 0.298,-0.465L0.239,-0.296L0.441,-0.296L0.388,-0.46Z" style="fill:rgb(15,31,71);fill-rule:nonzero;"/>
                    </g>
                </g>
                <g transform="matrix(1,0,0,1,5171.67,2962.48)">
                    <g transform="matrix(91.667,0,0,91.667,0,0)">
                        <path d="M0.698,-0.661L0.65,-0.661C0.645,-0.661 0.641,-0.66 0.638,-0.658C0.634,-0.656 0.631,-0.653 0.627,-0.647C0.623,-0.642 0.62,-0.634 0.616,-0.625C0.612,-0.616 0.607,-0.603 0.602,-0.588L0.398,-0L0.298,-0L0.085,-0.613C0.082,-0.622 0.078,-0.63 0.073,-0.636C0.067,-0.643 0.062,-0.648 0.056,-0.651C0.051,-0.655 0.045,-0.657 0.039,-0.659C0.033,-0.66 0.028,-0.661 0.023,-0.661L0,-0.661L0,-0.714L0.33,-0.714L0.33,-0.661L0.284,-0.661C0.279,-0.661 0.275,-0.661 0.27,-0.659C0.265,-0.658 0.261,-0.656 0.258,-0.654C0.254,-0.651 0.251,-0.648 0.249,-0.644C0.246,-0.639 0.245,-0.634 0.245,-0.628C0.245,-0.621 0.246,-0.614 0.248,-0.606C0.25,-0.597 0.252,-0.59 0.254,-0.585L0.356,-0.277C0.359,-0.269 0.361,-0.261 0.364,-0.25C0.367,-0.24 0.369,-0.23 0.372,-0.219C0.375,-0.208 0.377,-0.197 0.379,-0.186C0.381,-0.175 0.383,-0.165 0.384,-0.156C0.385,-0.161 0.386,-0.169 0.389,-0.178C0.391,-0.188 0.394,-0.198 0.397,-0.21C0.401,-0.221 0.404,-0.232 0.407,-0.243C0.411,-0.255 0.414,-0.265 0.417,-0.274L0.52,-0.578C0.521,-0.582 0.523,-0.586 0.524,-0.59C0.526,-0.594 0.527,-0.599 0.528,-0.604C0.529,-0.608 0.53,-0.612 0.531,-0.617C0.532,-0.621 0.532,-0.624 0.532,-0.627C0.532,-0.638 0.529,-0.646 0.521,-0.652C0.514,-0.658 0.504,-0.661 0.492,-0.661L0.44,-0.661L0.44,-0.714L0.698,-0.714L0.698,-0.661Z" style="fill:rgb(15,31,71);fill-rule:nonzero;"/>
                    </g>
                    <g transform="matrix(91.667,0,0,91.667,64.0058,0)">
                        <path d="M0.28,-0.061L0.48,-0.061C0.49,-0.061 0.499,-0.063 0.506,-0.067C0.513,-0.07 0.519,-0.076 0.524,-0.083C0.53,-0.089 0.534,-0.097 0.537,-0.107C0.54,-0.116 0.542,-0.126 0.544,-0.137L0.552,-0.184L0.621,-0.184L0.614,-0L0.028,-0L0.028,-0.053L0.07,-0.053C0.077,-0.053 0.084,-0.054 0.09,-0.055C0.096,-0.056 0.101,-0.059 0.106,-0.063C0.111,-0.067 0.115,-0.073 0.117,-0.081C0.12,-0.089 0.121,-0.1 0.121,-0.113L0.121,-0.596C0.121,-0.611 0.12,-0.622 0.117,-0.63C0.115,-0.639 0.111,-0.645 0.106,-0.65C0.102,-0.654 0.097,-0.657 0.09,-0.659C0.084,-0.66 0.077,-0.661 0.07,-0.661L0.028,-0.661L0.028,-0.714L0.583,-0.714L0.587,-0.53L0.517,-0.53L0.512,-0.577C0.51,-0.602 0.503,-0.62 0.494,-0.633C0.484,-0.646 0.469,-0.653 0.448,-0.653L0.28,-0.653L0.28,-0.403L0.517,-0.403L0.517,-0.343L0.28,-0.343L0.28,-0.061Z" style="fill:rgb(15,31,71);fill-rule:nonzero;"/>
                    </g>
                </g>
            </g>
            <g>
                <g transform="matrix(1,0,0,1,5035.82,2834.3)">
                    <g transform="matrix(91.667,0,0,91.667,0,0)">
                        <path d="M0.406,-0.118C0.406,-0.104 0.407,-0.092 0.41,-0.084C0.412,-0.076 0.416,-0.069 0.421,-0.064C0.425,-0.06 0.431,-0.057 0.437,-0.055C0.443,-0.054 0.45,-0.053 0.457,-0.053L0.499,-0.053L0.499,-0L0.154,-0L0.154,-0.053L0.196,-0.053C0.203,-0.053 0.21,-0.054 0.216,-0.055C0.222,-0.057 0.228,-0.06 0.232,-0.064C0.237,-0.069 0.241,-0.076 0.243,-0.084C0.246,-0.092 0.247,-0.104 0.247,-0.118L0.247,-0.653L0.167,-0.653C0.152,-0.653 0.139,-0.651 0.129,-0.648C0.119,-0.645 0.111,-0.64 0.105,-0.634C0.098,-0.628 0.094,-0.621 0.091,-0.612C0.087,-0.603 0.085,-0.593 0.084,-0.582L0.077,-0.52L0.01,-0.52L0.015,-0.714L0.638,-0.714L0.643,-0.52L0.576,-0.52L0.569,-0.582C0.568,-0.593 0.565,-0.603 0.562,-0.612C0.559,-0.621 0.554,-0.628 0.548,-0.634C0.542,-0.64 0.534,-0.645 0.523,-0.648C0.513,-0.651 0.501,-0.653 0.486,-0.653L0.406,-0.653L0.406,-0.118Z" style="fill:rgb(15,31,71);fill-rule:nonzero;"/>
                    </g>
                </g>
                <g transform="matrix(1,0,0,1,5090.15,2834.3)">
                    <g transform="matrix(91.667,0,0,91.667,0,0)">
                        <path d="M0.218,-0.235L0.189,-0.149C0.186,-0.141 0.184,-0.131 0.181,-0.12C0.178,-0.109 0.177,-0.1 0.177,-0.092C0.177,-0.085 0.178,-0.08 0.181,-0.075C0.183,-0.07 0.187,-0.066 0.191,-0.063C0.195,-0.06 0.2,-0.057 0.205,-0.056C0.211,-0.054 0.216,-0.053 0.222,-0.053L0.264,-0.053L0.264,-0L0.004,-0L0.004,-0.053L0.016,-0.053C0.025,-0.053 0.033,-0.054 0.04,-0.056C0.048,-0.058 0.054,-0.062 0.061,-0.067C0.067,-0.073 0.073,-0.08 0.079,-0.089C0.085,-0.099 0.09,-0.111 0.096,-0.126L0.313,-0.714L0.45,-0.714L0.659,-0.125C0.664,-0.111 0.669,-0.099 0.675,-0.09C0.68,-0.081 0.686,-0.073 0.692,-0.068C0.698,-0.063 0.705,-0.059 0.712,-0.057C0.72,-0.054 0.727,-0.053 0.735,-0.053L0.753,-0.053L0.753,-0L0.423,-0L0.423,-0.053L0.462,-0.053C0.467,-0.053 0.472,-0.054 0.477,-0.055C0.482,-0.057 0.487,-0.059 0.491,-0.062C0.495,-0.065 0.498,-0.069 0.501,-0.074C0.504,-0.079 0.505,-0.085 0.505,-0.092C0.505,-0.1 0.504,-0.108 0.502,-0.115C0.5,-0.123 0.498,-0.129 0.496,-0.135L0.461,-0.235L0.218,-0.235ZM0.388,-0.46C0.385,-0.471 0.381,-0.483 0.377,-0.496C0.373,-0.508 0.37,-0.521 0.366,-0.534C0.362,-0.547 0.359,-0.56 0.355,-0.573C0.352,-0.586 0.349,-0.598 0.346,-0.61C0.343,-0.6 0.34,-0.589 0.336,-0.577C0.332,-0.565 0.328,-0.552 0.323,-0.54C0.319,-0.527 0.315,-0.514 0.31,-0.501C0.306,-0.489 0.302,-0.477 0.298,-0.465L0.239,-0.296L0.441,-0.296L0.388,-0.46Z" style="fill:rgb(15,31,71);fill-rule:nonzero;"/>
                    </g>
                    <g transform="matrix(91.667,0,0,91.667,69.0188,0)">
                        <path d="M0.604,-0L0.604,-0.053L0.614,-0.053C0.624,-0.053 0.633,-0.054 0.641,-0.055C0.649,-0.056 0.656,-0.059 0.661,-0.063C0.666,-0.067 0.67,-0.073 0.673,-0.08C0.675,-0.087 0.677,-0.097 0.677,-0.109L0.677,-0.615L0.475,-0L0.407,-0L0.196,-0.615L0.196,-0.118C0.196,-0.104 0.198,-0.092 0.201,-0.084C0.204,-0.076 0.209,-0.069 0.216,-0.064C0.222,-0.06 0.23,-0.057 0.239,-0.055C0.248,-0.054 0.258,-0.053 0.27,-0.053L0.276,-0.053L0.276,-0L0.028,-0L0.028,-0.053L0.07,-0.053C0.077,-0.053 0.084,-0.054 0.09,-0.055C0.096,-0.056 0.101,-0.059 0.106,-0.063C0.111,-0.067 0.115,-0.073 0.117,-0.081C0.12,-0.089 0.121,-0.1 0.121,-0.113L0.121,-0.6C0.121,-0.613 0.12,-0.624 0.117,-0.632C0.115,-0.64 0.111,-0.646 0.106,-0.65C0.101,-0.655 0.096,-0.657 0.09,-0.659C0.084,-0.66 0.077,-0.661 0.07,-0.661L0.028,-0.661L0.028,-0.714L0.316,-0.714L0.482,-0.231L0.641,-0.714L0.924,-0.714L0.924,-0.661L0.882,-0.661C0.875,-0.661 0.868,-0.66 0.862,-0.659C0.856,-0.657 0.85,-0.654 0.846,-0.65C0.841,-0.645 0.838,-0.639 0.835,-0.63C0.832,-0.622 0.831,-0.611 0.831,-0.596L0.831,-0.118C0.831,-0.104 0.832,-0.092 0.835,-0.084C0.838,-0.076 0.841,-0.069 0.846,-0.064C0.85,-0.06 0.856,-0.057 0.862,-0.055C0.868,-0.054 0.875,-0.053 0.882,-0.053L0.924,-0.053L0.924,-0L0.604,-0Z" style="fill:rgb(15,31,71);fill-rule:nonzero;"/>
                    </g>
                </g>
            </g>
            <g>
                <g transform="matrix(1,0,0,1,5376.68,2833.41)">
                    <g transform="matrix(91.667,0,0,91.667,0,0)">
                        <path d="M0.264,0.01C0.219,0.01 0.182,0.006 0.152,-0.003C0.122,-0.011 0.098,-0.022 0.08,-0.036C0.062,-0.049 0.049,-0.064 0.041,-0.081C0.034,-0.097 0.03,-0.114 0.03,-0.13C0.03,-0.147 0.033,-0.162 0.039,-0.173C0.046,-0.185 0.054,-0.195 0.065,-0.202C0.075,-0.21 0.087,-0.215 0.101,-0.218C0.114,-0.222 0.128,-0.223 0.143,-0.223C0.143,-0.194 0.146,-0.169 0.153,-0.148C0.16,-0.126 0.17,-0.108 0.182,-0.094C0.194,-0.079 0.208,-0.068 0.225,-0.061C0.242,-0.053 0.26,-0.05 0.28,-0.05C0.299,-0.05 0.317,-0.053 0.332,-0.058C0.347,-0.064 0.36,-0.071 0.371,-0.081C0.382,-0.091 0.39,-0.102 0.396,-0.115C0.401,-0.129 0.404,-0.143 0.404,-0.158C0.404,-0.175 0.4,-0.19 0.394,-0.203C0.387,-0.217 0.376,-0.229 0.363,-0.24C0.349,-0.251 0.331,-0.262 0.31,-0.272C0.289,-0.282 0.265,-0.293 0.237,-0.305C0.202,-0.319 0.173,-0.334 0.149,-0.349C0.125,-0.365 0.105,-0.381 0.091,-0.398C0.076,-0.416 0.066,-0.435 0.059,-0.456C0.053,-0.476 0.05,-0.499 0.05,-0.523C0.05,-0.554 0.056,-0.581 0.068,-0.606C0.081,-0.631 0.098,-0.652 0.12,-0.669C0.141,-0.687 0.167,-0.701 0.197,-0.71C0.227,-0.719 0.26,-0.724 0.295,-0.724C0.332,-0.724 0.363,-0.721 0.39,-0.715C0.417,-0.709 0.439,-0.701 0.456,-0.69C0.474,-0.68 0.487,-0.668 0.495,-0.654C0.504,-0.639 0.508,-0.624 0.508,-0.608C0.508,-0.596 0.505,-0.585 0.5,-0.575C0.495,-0.565 0.488,-0.556 0.477,-0.549C0.467,-0.541 0.454,-0.535 0.439,-0.531C0.423,-0.527 0.405,-0.525 0.385,-0.525C0.385,-0.539 0.383,-0.554 0.379,-0.57C0.375,-0.586 0.369,-0.601 0.361,-0.615C0.352,-0.629 0.341,-0.64 0.328,-0.649C0.314,-0.659 0.298,-0.663 0.279,-0.663C0.265,-0.663 0.253,-0.661 0.241,-0.657C0.229,-0.653 0.218,-0.647 0.209,-0.64C0.2,-0.632 0.193,-0.622 0.188,-0.611C0.183,-0.599 0.18,-0.586 0.18,-0.571C0.18,-0.557 0.182,-0.544 0.187,-0.531C0.192,-0.519 0.2,-0.507 0.212,-0.495C0.224,-0.483 0.241,-0.471 0.262,-0.459C0.284,-0.447 0.311,-0.435 0.345,-0.421C0.379,-0.407 0.409,-0.393 0.433,-0.378C0.457,-0.363 0.476,-0.348 0.492,-0.331C0.507,-0.314 0.519,-0.296 0.526,-0.276C0.533,-0.256 0.536,-0.233 0.536,-0.209C0.536,-0.177 0.53,-0.147 0.517,-0.12C0.504,-0.094 0.486,-0.07 0.462,-0.051C0.439,-0.032 0.41,-0.017 0.377,-0.006C0.343,0.004 0.306,0.01 0.264,0.01Z" style="fill:rgb(15,31,71);fill-rule:nonzero;"/>
                    </g>
                </g>
                <g transform="matrix(1,0,0,1,5428.55,2833.41)">
                    <g transform="matrix(91.667,0,0,91.667,0,0)">
                        <path d="M0.406,-0.118C0.406,-0.104 0.407,-0.092 0.41,-0.084C0.412,-0.076 0.416,-0.069 0.421,-0.064C0.425,-0.06 0.431,-0.057 0.437,-0.055C0.443,-0.054 0.45,-0.053 0.457,-0.053L0.499,-0.053L0.499,-0L0.154,-0L0.154,-0.053L0.196,-0.053C0.203,-0.053 0.21,-0.054 0.216,-0.055C0.222,-0.057 0.228,-0.06 0.232,-0.064C0.237,-0.069 0.241,-0.076 0.243,-0.084C0.246,-0.092 0.247,-0.104 0.247,-0.118L0.247,-0.653L0.167,-0.653C0.152,-0.653 0.139,-0.651 0.129,-0.648C0.119,-0.645 0.111,-0.64 0.105,-0.634C0.098,-0.628 0.094,-0.621 0.091,-0.612C0.087,-0.603 0.085,-0.593 0.084,-0.582L0.077,-0.52L0.01,-0.52L0.015,-0.714L0.638,-0.714L0.643,-0.52L0.576,-0.52L0.569,-0.582C0.568,-0.593 0.565,-0.603 0.562,-0.612C0.559,-0.621 0.554,-0.628 0.548,-0.634C0.542,-0.64 0.534,-0.645 0.523,-0.648C0.513,-0.651 0.501,-0.653 0.486,-0.653L0.406,-0.653L0.406,-0.118Z" style="fill:rgb(15,31,71);fill-rule:nonzero;"/>
                    </g>
                    <g transform="matrix(91.667,0,0,91.667,59.8432,0)">
                        <path d="M0.731,-0.661L0.688,-0.661C0.681,-0.661 0.675,-0.66 0.668,-0.659C0.662,-0.657 0.657,-0.654 0.652,-0.65C0.647,-0.645 0.644,-0.639 0.641,-0.63C0.639,-0.622 0.637,-0.611 0.637,-0.596L0.637,-0.206C0.637,-0.173 0.632,-0.142 0.623,-0.116C0.613,-0.089 0.598,-0.066 0.578,-0.048C0.558,-0.029 0.532,-0.015 0.5,-0.005C0.468,0.005 0.431,0.01 0.387,0.01C0.344,0.01 0.305,0.006 0.27,-0.003C0.236,-0.011 0.207,-0.024 0.183,-0.042C0.159,-0.061 0.141,-0.084 0.129,-0.113C0.116,-0.142 0.11,-0.177 0.11,-0.218L0.11,-0.6C0.11,-0.613 0.108,-0.624 0.106,-0.632C0.103,-0.64 0.099,-0.646 0.094,-0.65C0.09,-0.655 0.084,-0.657 0.078,-0.659C0.072,-0.66 0.066,-0.661 0.059,-0.661L0.016,-0.661L0.016,-0.714L0.361,-0.714L0.361,-0.661L0.319,-0.661C0.312,-0.661 0.306,-0.66 0.299,-0.659C0.293,-0.657 0.288,-0.654 0.283,-0.65C0.278,-0.645 0.275,-0.639 0.272,-0.63C0.269,-0.622 0.268,-0.611 0.268,-0.596L0.268,-0.21C0.268,-0.182 0.272,-0.158 0.279,-0.139C0.286,-0.12 0.296,-0.105 0.309,-0.094C0.322,-0.082 0.337,-0.074 0.355,-0.069C0.374,-0.064 0.394,-0.061 0.417,-0.061C0.439,-0.061 0.459,-0.064 0.477,-0.07C0.495,-0.075 0.51,-0.084 0.523,-0.096C0.535,-0.108 0.545,-0.124 0.552,-0.142C0.559,-0.161 0.562,-0.183 0.562,-0.208L0.562,-0.6C0.562,-0.613 0.561,-0.624 0.558,-0.632C0.556,-0.64 0.552,-0.646 0.547,-0.65C0.542,-0.655 0.537,-0.657 0.531,-0.659C0.525,-0.66 0.518,-0.661 0.511,-0.661L0.469,-0.661L0.469,-0.714L0.731,-0.714L0.731,-0.661Z" style="fill:rgb(15,31,71);fill-rule:nonzero;"/>
                    </g>
                    <g transform="matrix(91.667,0,0,91.667,128.325,0)">
                        <path d="M0.028,-0L0.028,-0.053L0.07,-0.053C0.077,-0.053 0.084,-0.054 0.09,-0.055C0.097,-0.057 0.102,-0.06 0.106,-0.064C0.111,-0.069 0.115,-0.076 0.117,-0.084C0.12,-0.092 0.121,-0.104 0.121,-0.118L0.121,-0.596C0.121,-0.611 0.12,-0.622 0.117,-0.63C0.115,-0.639 0.111,-0.645 0.106,-0.65C0.102,-0.654 0.097,-0.657 0.09,-0.659C0.084,-0.66 0.077,-0.661 0.07,-0.661L0.028,-0.661L0.028,-0.714L0.373,-0.714L0.373,-0.661L0.331,-0.661C0.324,-0.661 0.318,-0.66 0.311,-0.659C0.305,-0.657 0.299,-0.655 0.295,-0.65C0.29,-0.646 0.287,-0.64 0.284,-0.632C0.281,-0.624 0.28,-0.613 0.28,-0.6L0.28,-0.061L0.466,-0.061C0.489,-0.061 0.507,-0.068 0.521,-0.083C0.534,-0.098 0.543,-0.12 0.549,-0.148L0.565,-0.223L0.621,-0.223L0.614,-0L0.028,-0Z" style="fill:rgb(15,31,71);fill-rule:nonzero;"/>
                    </g>
                </g>
                <g transform="matrix(1,0,0,1,5610.41,2833.41)">
                    <g transform="matrix(91.667,0,0,91.667,0,0)">
                        <path d="M0.406,-0.118C0.406,-0.104 0.407,-0.092 0.41,-0.084C0.412,-0.076 0.416,-0.069 0.421,-0.064C0.425,-0.06 0.431,-0.057 0.437,-0.055C0.443,-0.054 0.45,-0.053 0.457,-0.053L0.499,-0.053L0.499,-0L0.154,-0L0.154,-0.053L0.196,-0.053C0.203,-0.053 0.21,-0.054 0.216,-0.055C0.222,-0.057 0.228,-0.06 0.232,-0.064C0.237,-0.069 0.241,-0.076 0.243,-0.084C0.246,-0.092 0.247,-0.104 0.247,-0.118L0.247,-0.653L0.167,-0.653C0.152,-0.653 0.139,-0.651 0.129,-0.648C0.119,-0.645 0.111,-0.64 0.105,-0.634C0.098,-0.628 0.094,-0.621 0.091,-0.612C0.087,-0.603 0.085,-0.593 0.084,-0.582L0.077,-0.52L0.01,-0.52L0.015,-0.714L0.638,-0.714L0.643,-0.52L0.576,-0.52L0.569,-0.582C0.568,-0.593 0.565,-0.603 0.562,-0.612C0.559,-0.621 0.554,-0.628 0.548,-0.634C0.542,-0.64 0.534,-0.645 0.523,-0.648C0.513,-0.651 0.501,-0.653 0.486,-0.653L0.406,-0.653L0.406,-0.118Z" style="fill:rgb(15,31,71);fill-rule:nonzero;"/>
                    </g>
                    <g transform="matrix(91.667,0,0,91.667,59.8432,0)">
                        <path d="M0.028,-0L0.028,-0.053L0.07,-0.053C0.077,-0.053 0.084,-0.054 0.09,-0.055C0.097,-0.057 0.102,-0.06 0.106,-0.064C0.111,-0.069 0.115,-0.076 0.117,-0.084C0.12,-0.092 0.121,-0.104 0.121,-0.118L0.121,-0.596C0.121,-0.61 0.12,-0.621 0.117,-0.63C0.115,-0.638 0.111,-0.645 0.106,-0.649C0.102,-0.654 0.097,-0.657 0.09,-0.658C0.084,-0.66 0.077,-0.661 0.07,-0.661L0.028,-0.661L0.028,-0.714L0.373,-0.714L0.373,-0.661L0.331,-0.661C0.324,-0.661 0.317,-0.66 0.311,-0.658C0.304,-0.657 0.299,-0.654 0.294,-0.649C0.29,-0.645 0.286,-0.638 0.284,-0.63C0.281,-0.621 0.28,-0.61 0.28,-0.596L0.28,-0.118C0.28,-0.104 0.281,-0.092 0.284,-0.084C0.286,-0.076 0.29,-0.069 0.294,-0.064C0.299,-0.06 0.304,-0.057 0.311,-0.055C0.317,-0.054 0.324,-0.053 0.331,-0.053L0.373,-0.053L0.373,-0L0.028,-0Z" style="fill:rgb(15,31,71);fill-rule:nonzero;"/>
                    </g>
                </g>
            </g>
            <g>
                <path d="M5243.38,2229.58C5243.37,2225.06 5241.7,2220.75 5238.61,2217.45C5236.5,2215.21 5233.83,2212.37 5230.99,2209.38C5237.14,2205.57 5241.84,2199.65 5243.33,2192.32C5243.9,2189.56 5241.73,2186.95 5238.92,2186.95L5172.15,2186.95C5132.82,2186.95 5100.93,2218.85 5100.93,2258.18L5011.94,2258.18C4995.89,2258.18 4981.66,2265.41 4971.87,2276.61L4971.87,2275.99C4944.87,2275.99 4922.9,2297.95 4922.9,2324.96L4922.9,2356.12C4922.9,2361.04 4926.89,2365.02 4931.81,2365.02L4940.71,2365.02C4945.63,2365.02 4949.61,2361.04 4949.61,2356.12L4949.61,2324.96C4949.61,2317.6 4953.44,2311.39 4958.95,2307.33C4958.83,2308.76 4958.52,2310.14 4958.52,2311.6C4958.52,2326.98 4965.1,2340.74 4975.51,2350.49L4961.2,2388.66C4958.66,2395.42 4958.24,2402.8 4960,2409.8L4973.82,2465.12C4974.81,2469.07 4978.38,2471.86 4982.45,2471.86L5019.16,2471.86C5024.95,2471.86 5029.2,2466.42 5027.8,2460.8L5013.15,2402.23L5026.42,2366.84L5100.97,2379.27L5100.97,2462.96C5100.97,2467.88 5104.95,2471.86 5109.87,2471.86L5145.49,2471.86C5150.41,2471.86 5154.39,2467.88 5154.39,2462.96L5154.39,2364.03C5165.38,2352.8 5172.2,2337.46 5172.2,2320.51C5172.2,2320.38 5172.16,2320.27 5172.15,2320.15L5172.15,2263.13L5181.06,2267.09L5191.57,2288.06C5195.72,2296.34 5205.51,2300.06 5214.1,2296.62L5232.22,2289.37C5238.97,2286.67 5243.42,2280.1 5243.41,2272.82L5243.38,2229.58ZM5207.77,2240.38C5202.85,2240.38 5198.86,2236.39 5198.86,2231.47C5198.86,2226.55 5202.85,2222.57 5207.77,2222.57C5212.69,2222.57 5216.67,2226.55 5216.67,2231.47C5216.67,2236.39 5212.69,2240.38 5207.77,2240.38Z" style="fill:white;fill-rule:nonzero;"/>
            </g>
            <g>
                <path d="M5432.81,2229.58C5432.82,2225.06 5434.49,2220.75 5437.58,2217.45C5439.69,2215.21 5442.36,2212.37 5445.2,2209.38C5439.05,2205.57 5434.35,2199.65 5432.86,2192.32C5432.29,2189.56 5434.46,2186.95 5437.27,2186.95L5504.04,2186.95C5543.37,2186.95 5575.26,2218.85 5575.26,2258.18L5664.25,2258.18C5680.3,2258.18 5694.53,2265.41 5704.32,2276.61L5704.32,2275.99C5731.32,2275.99 5753.29,2297.95 5753.29,2324.96L5753.29,2356.12C5753.29,2361.04 5749.3,2365.02 5744.38,2365.02L5735.48,2365.02C5730.56,2365.02 5726.58,2361.04 5726.58,2356.12L5726.58,2324.96C5726.58,2317.6 5722.75,2311.39 5717.24,2307.33C5717.36,2308.76 5717.67,2310.14 5717.67,2311.6C5717.67,2326.98 5711.09,2340.74 5700.68,2350.49L5714.99,2388.66C5717.53,2395.42 5717.95,2402.8 5716.19,2409.8L5702.36,2465.12C5701.38,2469.07 5697.81,2471.86 5693.73,2471.86L5657.03,2471.86C5651.24,2471.86 5646.99,2466.42 5648.39,2460.8L5663.03,2402.23L5649.77,2366.84L5575.22,2379.27L5575.22,2462.96C5575.22,2467.88 5571.23,2471.86 5566.32,2471.86L5530.7,2471.86C5525.78,2471.86 5521.8,2467.88 5521.8,2462.96L5521.8,2364.03C5510.81,2352.8 5503.99,2337.46 5503.99,2320.51C5503.99,2320.38 5504.03,2320.27 5504.04,2320.15L5504.04,2263.13L5495.13,2267.09L5484.62,2288.06C5480.47,2296.34 5470.68,2300.06 5462.09,2296.62L5443.97,2289.37C5437.22,2286.67 5432.77,2280.1 5432.78,2272.82L5432.81,2229.58ZM5468.42,2240.38C5473.34,2240.38 5477.33,2236.39 5477.33,2231.47C5477.33,2226.55 5473.34,2222.57 5468.42,2222.57C5463.5,2222.57 5459.52,2226.55 5459.52,2231.47C5459.52,2236.39 5463.5,2240.38 5468.42,2240.38Z" style="fill:white;fill-rule:nonzero;"/>
            </g>
            <path d="M5237.06,3208.64C5237.06,3208.64 5234.52,3209.17 5230.37,3211.1C5226.24,3213.04 5220.4,3216.29 5214.19,3221.66C5200.22,3233.55 5188.55,3255.36 5191.67,3274.09C5194.21,3289.38 5206.35,3300.61 5220.17,3306.46C5224.18,3308.16 5227.77,3309.24 5231.43,3309.98L5193.08,3309.98L5192.02,3319.83C5192.02,3319.83 5190.19,3333.88 5196.6,3348.33C5202.14,3360.85 5215.45,3373.64 5237.41,3376.83C5237.19,3380.76 5237.06,3384.66 5237.06,3388.8L5237.06,3396.19L5243.74,3399C5244.31,3399.24 5247.85,3402.09 5251.14,3407.1C5254.42,3412.1 5258.02,3419.17 5260.99,3427.15C5266.93,3443.12 5270.84,3462.87 5270.84,3478.88L5270.84,3480.28L5271.19,3481.34C5271.19,3481.34 5273.91,3492.98 5283.86,3503.51C5293.8,3514.03 5311.4,3523.92 5338.4,3523.92C5365.39,3523.92 5382.99,3514.03 5392.94,3503.51C5402.88,3492.98 5405.61,3481.34 5405.61,3481.34L5405.96,3480.28L5405.96,3478.88C5405.96,3462.87 5409.87,3443.12 5415.81,3427.15C5418.78,3419.17 5422.37,3412.1 5425.66,3407.1C5428.95,3402.09 5432.49,3399.24 5433.05,3399L5439.74,3396.19L5439.74,3388.8C5439.74,3384.66 5439.61,3380.76 5439.39,3376.83C5461.35,3373.64 5474.66,3360.85 5480.2,3348.33C5486.6,3333.88 5484.78,3319.83 5484.78,3319.83L5483.72,3309.98L5445.37,3309.98C5449.03,3309.24 5452.61,3308.16 5456.63,3306.46C5470.44,3300.61 5482.58,3289.38 5485.13,3274.09C5488.25,3255.36 5476.58,3233.55 5462.61,3221.66C5456.39,3216.29 5450.56,3213.04 5446.42,3211.1C5442.28,3209.17 5439.74,3208.64 5439.74,3208.64C5439.74,3208.64 5441.87,3210.11 5445.02,3213.22C5448.13,3216.31 5452.4,3221.01 5455.92,3227.29C5460.89,3236.15 5469.6,3261.97 5458.03,3269.51C5455.9,3270.91 5446.3,3276.2 5439.74,3276.2C5418.78,3276.2 5397.86,3269.08 5381.68,3262.48C5381.54,3262.38 5381.46,3262.22 5381.33,3262.12C5360.16,3247 5340.86,3242.77 5340.86,3242.77L5338.4,3242.07L5335.94,3242.77C5335.94,3242.77 5316.45,3247.12 5295.12,3262.48C5278.94,3269.08 5258.02,3276.2 5237.06,3276.2C5230.49,3276.2 5220.9,3270.91 5218.76,3269.51C5207.2,3261.97 5215.91,3236.15 5220.87,3227.29C5224.4,3221.01 5228.66,3216.31 5231.78,3213.22C5234.92,3210.11 5237.06,3208.64 5237.06,3208.64ZM5338.4,3265.64C5341.83,3266.55 5357.68,3270.87 5376.05,3286.76C5396.01,3304.01 5415.9,3333.45 5416.86,3385.28C5413.47,3388.33 5409.7,3390.7 5407.01,3394.78C5402.43,3401.76 5398.47,3409.86 5395.05,3419.06C5392.32,3426.39 5389.84,3434.24 5388.01,3442.28C5386.28,3441.05 5384.47,3439.97 5382.73,3439.12C5371.54,3433.6 5360.92,3433.84 5360.92,3433.84L5360.92,3456.36C5360.92,3456.36 5367.18,3456.36 5372.88,3459.17C5378.34,3461.87 5383.06,3465.37 5383.44,3477.47C5383.11,3478.71 5381.88,3482.6 5376.75,3488.03C5375.55,3489.3 5373.8,3490.63 5372.18,3491.9L5372.18,3478.88L5349.66,3478.88L5349.66,3500.69C5346.27,3501.15 5342.56,3501.4 5338.4,3501.4C5334.24,3501.4 5330.52,3501.15 5327.14,3500.69L5327.14,3478.88L5304.62,3478.88L5304.62,3491.9C5303,3490.63 5301.25,3489.3 5300.04,3488.03C5294.92,3482.6 5293.69,3478.71 5293.36,3477.47C5293.74,3465.37 5298.45,3461.87 5303.91,3459.17C5309.61,3456.36 5315.88,3456.36 5315.88,3456.36L5315.88,3433.84C5315.88,3433.84 5305.25,3433.6 5294.06,3439.12C5292.33,3439.97 5290.51,3441.05 5288.78,3442.28C5286.95,3434.24 5284.47,3426.39 5281.75,3419.06C5278.32,3409.86 5274.37,3401.76 5269.78,3394.78C5267.1,3390.7 5263.33,3388.33 5259.93,3385.28C5260.9,3333.45 5280.79,3304.01 5300.75,3286.76C5319.12,3270.87 5334.96,3266.55 5338.4,3265.64ZM5216.3,3332.5L5245.51,3332.5C5243.3,3339.33 5241.61,3346.86 5240.23,3354.67C5225.14,3352.93 5220.43,3346.12 5217.36,3339.18C5215.91,3335.93 5216.66,3335.33 5216.3,3332.5ZM5431.29,3332.5L5460.5,3332.5C5460.13,3335.33 5460.88,3335.93 5459.44,3339.18C5456.37,3346.12 5451.66,3352.93 5436.57,3354.67C5435.19,3346.86 5433.49,3339.33 5431.29,3332.5ZM5270.84,3366.28C5279.28,3396.31 5293.36,3400.06 5293.36,3400.06C5293.36,3400.06 5309.78,3401.47 5315.88,3388.8C5308.84,3372.84 5270.84,3366.28 5270.84,3366.28ZM5405.96,3366.28C5405.96,3366.28 5367.95,3372.84 5360.92,3388.8C5367.02,3401.47 5383.44,3400.06 5383.44,3400.06C5383.44,3400.06 5397.51,3396.31 5405.96,3366.28Z" style="fill:white;fill-rule:nonzero;"/>
        </g>
        <g transform="matrix(1.40715,0,0,1.36617,743.864,7303.43)">
            <g transform="matrix(1008.54,0,0,1008.54,0,0)">
                <path d="M0.685,-0.358C0.685,-0.303 0.678,-0.253 0.665,-0.208C0.651,-0.162 0.631,-0.124 0.604,-0.091C0.577,-0.059 0.544,-0.034 0.505,-0.017C0.466,0.001 0.422,0.01 0.371,0.01C0.318,0.01 0.272,0.001 0.232,-0.017C0.193,-0.034 0.16,-0.059 0.134,-0.091C0.108,-0.124 0.089,-0.162 0.076,-0.208C0.063,-0.253 0.056,-0.304 0.056,-0.359C0.056,-0.414 0.063,-0.464 0.076,-0.51C0.089,-0.555 0.108,-0.593 0.134,-0.625C0.16,-0.657 0.193,-0.682 0.233,-0.699C0.273,-0.716 0.319,-0.725 0.372,-0.725C0.423,-0.725 0.467,-0.716 0.506,-0.699C0.545,-0.682 0.577,-0.657 0.604,-0.625C0.631,-0.593 0.651,-0.554 0.665,-0.509C0.678,-0.464 0.685,-0.414 0.685,-0.358ZM0.167,-0.358C0.167,-0.308 0.171,-0.264 0.178,-0.225C0.185,-0.186 0.197,-0.154 0.213,-0.127C0.23,-0.1 0.251,-0.079 0.277,-0.065C0.302,-0.051 0.334,-0.044 0.371,-0.044C0.408,-0.044 0.44,-0.051 0.466,-0.065C0.491,-0.079 0.512,-0.1 0.529,-0.127C0.545,-0.154 0.556,-0.186 0.563,-0.225C0.571,-0.264 0.574,-0.308 0.574,-0.358C0.574,-0.407 0.571,-0.452 0.563,-0.49C0.556,-0.529 0.545,-0.562 0.529,-0.589C0.512,-0.616 0.492,-0.636 0.466,-0.65C0.441,-0.664 0.409,-0.671 0.372,-0.671C0.335,-0.671 0.303,-0.664 0.277,-0.65C0.251,-0.636 0.23,-0.616 0.214,-0.589C0.197,-0.562 0.185,-0.529 0.178,-0.49C0.171,-0.452 0.167,-0.407 0.167,-0.358Z" style="fill:white;fill-rule:nonzero;"/>
            </g>
            <g transform="matrix(1008.54,0,0,1008.54,728.335,0)">
                <path d="M0.466,-0.643C0.466,-0.649 0.464,-0.654 0.462,-0.657C0.459,-0.661 0.455,-0.664 0.45,-0.666C0.446,-0.668 0.44,-0.67 0.434,-0.671C0.427,-0.671 0.42,-0.672 0.412,-0.672L0.409,-0.672L0.409,-0.714L0.628,-0.714L0.628,-0.672L0.619,-0.672C0.609,-0.672 0.601,-0.671 0.593,-0.668C0.585,-0.666 0.577,-0.662 0.569,-0.656C0.562,-0.651 0.554,-0.643 0.546,-0.634C0.538,-0.625 0.529,-0.614 0.52,-0.6L0.375,-0.391L0.559,-0.095C0.574,-0.076 0.588,-0.062 0.601,-0.054C0.614,-0.046 0.626,-0.042 0.639,-0.042L0.652,-0.042L0.652,-0L0.382,-0L0.382,-0.042L0.387,-0.042C0.427,-0.042 0.447,-0.053 0.447,-0.075C0.447,-0.079 0.446,-0.082 0.446,-0.086C0.445,-0.09 0.443,-0.094 0.441,-0.099C0.439,-0.104 0.435,-0.11 0.431,-0.117C0.427,-0.124 0.421,-0.133 0.414,-0.144L0.315,-0.303L0.204,-0.139C0.201,-0.135 0.198,-0.13 0.195,-0.125C0.192,-0.119 0.19,-0.114 0.187,-0.108C0.184,-0.102 0.182,-0.096 0.181,-0.09C0.179,-0.084 0.178,-0.078 0.178,-0.073C0.178,-0.062 0.184,-0.054 0.194,-0.049C0.205,-0.044 0.221,-0.042 0.243,-0.042L0.246,-0.042L0.246,-0L0.008,-0L0.008,-0.042L0.014,-0.042C0.026,-0.042 0.037,-0.043 0.046,-0.046C0.055,-0.048 0.063,-0.052 0.071,-0.058C0.078,-0.063 0.086,-0.07 0.093,-0.079C0.101,-0.088 0.109,-0.099 0.118,-0.112L0.285,-0.351L0.12,-0.619C0.108,-0.638 0.094,-0.652 0.079,-0.66C0.064,-0.668 0.049,-0.672 0.034,-0.672L0.021,-0.672L0.021,-0.714L0.292,-0.714L0.292,-0.672L0.289,-0.672C0.278,-0.672 0.268,-0.671 0.261,-0.67C0.253,-0.668 0.247,-0.666 0.243,-0.664C0.239,-0.661 0.236,-0.658 0.234,-0.654C0.233,-0.651 0.232,-0.647 0.232,-0.643C0.232,-0.639 0.232,-0.636 0.233,-0.633C0.233,-0.63 0.234,-0.626 0.236,-0.621C0.237,-0.617 0.24,-0.612 0.243,-0.606C0.246,-0.6 0.25,-0.593 0.256,-0.584L0.346,-0.438L0.441,-0.582C0.448,-0.593 0.454,-0.604 0.459,-0.614C0.464,-0.624 0.466,-0.634 0.466,-0.643Z" style="fill:white;fill-rule:nonzero;"/>
            </g>
            <g transform="matrix(1008.54,0,0,1008.54,1394.13,0)">
                <path d="M0.464,-0L0.464,-0.042L0.477,-0.042C0.488,-0.042 0.499,-0.043 0.509,-0.044C0.519,-0.046 0.528,-0.049 0.535,-0.054C0.542,-0.059 0.548,-0.067 0.552,-0.076C0.557,-0.086 0.559,-0.098 0.559,-0.114L0.559,-0.348L0.234,-0.348L0.234,-0.114C0.234,-0.098 0.236,-0.086 0.24,-0.076C0.245,-0.067 0.251,-0.059 0.258,-0.054C0.265,-0.049 0.274,-0.046 0.284,-0.044C0.294,-0.043 0.305,-0.042 0.316,-0.042L0.329,-0.042L0.329,-0L0.038,-0L0.038,-0.042L0.051,-0.042C0.062,-0.042 0.073,-0.043 0.083,-0.044C0.093,-0.046 0.101,-0.049 0.109,-0.054C0.116,-0.059 0.122,-0.067 0.126,-0.076C0.131,-0.086 0.133,-0.098 0.133,-0.114L0.133,-0.604C0.133,-0.619 0.131,-0.63 0.126,-0.639C0.122,-0.648 0.116,-0.655 0.108,-0.66C0.101,-0.665 0.092,-0.668 0.082,-0.67C0.072,-0.671 0.062,-0.672 0.051,-0.672L0.038,-0.672L0.038,-0.714L0.329,-0.714L0.329,-0.672L0.316,-0.672C0.305,-0.672 0.294,-0.671 0.284,-0.669C0.274,-0.668 0.265,-0.664 0.258,-0.659C0.251,-0.654 0.245,-0.647 0.24,-0.638C0.236,-0.628 0.234,-0.616 0.234,-0.6L0.234,-0.398L0.559,-0.398L0.559,-0.6C0.559,-0.616 0.557,-0.628 0.552,-0.638C0.548,-0.647 0.542,-0.654 0.535,-0.659C0.528,-0.664 0.519,-0.668 0.509,-0.669C0.499,-0.671 0.488,-0.672 0.477,-0.672L0.464,-0.672L0.464,-0.714L0.755,-0.714L0.755,-0.672L0.742,-0.672C0.731,-0.672 0.72,-0.671 0.71,-0.669C0.7,-0.668 0.692,-0.664 0.684,-0.659C0.677,-0.654 0.671,-0.647 0.667,-0.638C0.662,-0.628 0.66,-0.616 0.66,-0.6L0.66,-0.109C0.66,-0.094 0.662,-0.082 0.667,-0.073C0.671,-0.065 0.677,-0.058 0.685,-0.053C0.692,-0.049 0.701,-0.046 0.711,-0.044C0.721,-0.043 0.731,-0.042 0.742,-0.042L0.755,-0.042L0.755,-0L0.464,-0Z" style="fill:white;fill-rule:nonzero;"/>
            </g>
            <g transform="matrix(1008.54,0,0,1008.54,2193.87,0)">
                <path d="M0.685,-0.358C0.685,-0.303 0.678,-0.253 0.665,-0.208C0.651,-0.162 0.631,-0.124 0.604,-0.091C0.577,-0.059 0.544,-0.034 0.505,-0.017C0.466,0.001 0.422,0.01 0.371,0.01C0.318,0.01 0.272,0.001 0.232,-0.017C0.193,-0.034 0.16,-0.059 0.134,-0.091C0.108,-0.124 0.089,-0.162 0.076,-0.208C0.063,-0.253 0.056,-0.304 0.056,-0.359C0.056,-0.414 0.063,-0.464 0.076,-0.51C0.089,-0.555 0.108,-0.593 0.134,-0.625C0.16,-0.657 0.193,-0.682 0.233,-0.699C0.273,-0.716 0.319,-0.725 0.372,-0.725C0.423,-0.725 0.467,-0.716 0.506,-0.699C0.545,-0.682 0.577,-0.657 0.604,-0.625C0.631,-0.593 0.651,-0.554 0.665,-0.509C0.678,-0.464 0.685,-0.414 0.685,-0.358ZM0.167,-0.358C0.167,-0.308 0.171,-0.264 0.178,-0.225C0.185,-0.186 0.197,-0.154 0.213,-0.127C0.23,-0.1 0.251,-0.079 0.277,-0.065C0.302,-0.051 0.334,-0.044 0.371,-0.044C0.408,-0.044 0.44,-0.051 0.466,-0.065C0.491,-0.079 0.512,-0.1 0.529,-0.127C0.545,-0.154 0.556,-0.186 0.563,-0.225C0.571,-0.264 0.574,-0.308 0.574,-0.358C0.574,-0.407 0.571,-0.452 0.563,-0.49C0.556,-0.529 0.545,-0.562 0.529,-0.589C0.512,-0.616 0.492,-0.636 0.466,-0.65C0.441,-0.664 0.409,-0.671 0.372,-0.671C0.335,-0.671 0.303,-0.664 0.277,-0.65C0.251,-0.636 0.23,-0.616 0.214,-0.589C0.197,-0.562 0.185,-0.529 0.178,-0.49C0.171,-0.452 0.167,-0.407 0.167,-0.358Z" style="fill:white;fill-rule:nonzero;"/>
            </g>
            <g transform="matrix(1008.54,0,0,1008.54,2942.4,0)">
                <path d="M0.554,-0.122C0.571,-0.095 0.588,-0.075 0.604,-0.062C0.619,-0.049 0.638,-0.042 0.659,-0.042L0.662,-0.042L0.662,-0L0.648,-0C0.617,-0 0.591,-0.001 0.571,-0.003C0.551,-0.006 0.534,-0.01 0.52,-0.017C0.506,-0.023 0.494,-0.032 0.484,-0.044C0.474,-0.056 0.464,-0.071 0.452,-0.09L0.317,-0.315L0.234,-0.315L0.234,-0.109C0.234,-0.094 0.236,-0.082 0.24,-0.073C0.245,-0.065 0.251,-0.058 0.258,-0.053C0.266,-0.049 0.274,-0.046 0.284,-0.044C0.294,-0.043 0.305,-0.042 0.316,-0.042L0.329,-0.042L0.329,-0L0.038,-0L0.038,-0.042L0.051,-0.042C0.062,-0.042 0.072,-0.043 0.082,-0.044C0.092,-0.046 0.101,-0.049 0.108,-0.053C0.116,-0.058 0.122,-0.065 0.126,-0.073C0.131,-0.082 0.133,-0.094 0.133,-0.109L0.133,-0.604C0.133,-0.619 0.131,-0.63 0.126,-0.639C0.122,-0.648 0.116,-0.655 0.108,-0.66C0.101,-0.665 0.092,-0.668 0.082,-0.67C0.072,-0.671 0.062,-0.672 0.051,-0.672L0.038,-0.672L0.038,-0.714L0.307,-0.714C0.394,-0.714 0.458,-0.698 0.5,-0.666C0.543,-0.634 0.564,-0.585 0.564,-0.521C0.564,-0.494 0.56,-0.471 0.551,-0.451C0.542,-0.431 0.531,-0.414 0.517,-0.399C0.503,-0.384 0.487,-0.372 0.47,-0.362C0.452,-0.353 0.435,-0.345 0.417,-0.339L0.554,-0.122ZM0.234,-0.362L0.304,-0.362C0.333,-0.362 0.358,-0.365 0.377,-0.372C0.397,-0.378 0.413,-0.388 0.424,-0.401C0.436,-0.414 0.444,-0.43 0.449,-0.45C0.455,-0.469 0.457,-0.492 0.457,-0.518C0.457,-0.545 0.454,-0.567 0.449,-0.586C0.443,-0.605 0.434,-0.62 0.422,-0.632C0.41,-0.644 0.393,-0.653 0.374,-0.658C0.354,-0.663 0.33,-0.666 0.302,-0.666L0.234,-0.666L0.234,-0.362Z" style="fill:white;fill-rule:nonzero;"/>
            </g>
            <g transform="matrix(1008.54,0,0,1008.54,3603.76,0)">
                <path d="M0.247,0.01C0.215,0.01 0.186,0.006 0.161,-0C0.136,-0.007 0.115,-0.017 0.098,-0.029C0.082,-0.041 0.069,-0.056 0.061,-0.073C0.052,-0.091 0.048,-0.11 0.048,-0.131C0.048,-0.151 0.054,-0.167 0.067,-0.18C0.079,-0.192 0.097,-0.198 0.12,-0.198C0.121,-0.177 0.124,-0.157 0.13,-0.138C0.135,-0.119 0.143,-0.102 0.154,-0.087C0.165,-0.073 0.178,-0.061 0.195,-0.052C0.211,-0.043 0.231,-0.039 0.255,-0.039C0.3,-0.039 0.335,-0.05 0.36,-0.072C0.385,-0.093 0.398,-0.124 0.398,-0.165C0.398,-0.183 0.395,-0.199 0.39,-0.213C0.385,-0.227 0.376,-0.24 0.364,-0.252C0.352,-0.264 0.336,-0.275 0.317,-0.286C0.297,-0.297 0.272,-0.309 0.243,-0.321C0.212,-0.333 0.185,-0.347 0.162,-0.362C0.139,-0.376 0.12,-0.392 0.104,-0.41C0.089,-0.428 0.078,-0.447 0.07,-0.469C0.063,-0.491 0.059,-0.516 0.059,-0.543C0.059,-0.572 0.065,-0.597 0.075,-0.62C0.086,-0.642 0.102,-0.661 0.121,-0.677C0.141,-0.692 0.164,-0.704 0.19,-0.712C0.217,-0.72 0.246,-0.724 0.278,-0.724C0.308,-0.724 0.334,-0.721 0.357,-0.715C0.381,-0.709 0.4,-0.7 0.416,-0.69C0.432,-0.68 0.444,-0.668 0.452,-0.654C0.461,-0.641 0.465,-0.626 0.465,-0.612C0.465,-0.59 0.458,-0.574 0.444,-0.563C0.429,-0.552 0.41,-0.547 0.386,-0.547C0.386,-0.563 0.384,-0.578 0.381,-0.593C0.377,-0.608 0.371,-0.622 0.362,-0.634C0.353,-0.645 0.341,-0.655 0.327,-0.663C0.313,-0.67 0.295,-0.674 0.274,-0.674C0.255,-0.674 0.238,-0.671 0.222,-0.666C0.207,-0.66 0.194,-0.653 0.184,-0.643C0.174,-0.633 0.166,-0.621 0.16,-0.607C0.155,-0.593 0.152,-0.577 0.152,-0.56C0.152,-0.54 0.154,-0.523 0.16,-0.508C0.165,-0.492 0.174,-0.479 0.186,-0.467C0.198,-0.454 0.214,-0.443 0.234,-0.432C0.254,-0.421 0.278,-0.41 0.307,-0.398C0.336,-0.386 0.363,-0.373 0.385,-0.36C0.408,-0.347 0.428,-0.332 0.444,-0.315C0.46,-0.299 0.472,-0.28 0.48,-0.26C0.489,-0.24 0.493,-0.217 0.493,-0.191C0.493,-0.159 0.487,-0.131 0.476,-0.106C0.464,-0.081 0.448,-0.06 0.426,-0.043C0.405,-0.026 0.379,-0.013 0.349,-0.004C0.318,0.005 0.285,0.01 0.247,0.01Z" style="fill:white;fill-rule:nonzero;"/>
            </g>
            <g transform="matrix(1008.54,0,0,1008.54,4152.35,0)">
                <path d="M0.234,-0.05L0.427,-0.05C0.443,-0.05 0.456,-0.052 0.468,-0.056C0.479,-0.061 0.488,-0.067 0.496,-0.074C0.503,-0.082 0.509,-0.09 0.513,-0.1C0.517,-0.11 0.52,-0.121 0.522,-0.132L0.529,-0.175L0.581,-0.175L0.574,-0L0.038,-0L0.038,-0.042L0.051,-0.042C0.062,-0.042 0.072,-0.043 0.082,-0.044C0.092,-0.046 0.101,-0.049 0.108,-0.053C0.116,-0.058 0.122,-0.065 0.126,-0.073C0.131,-0.082 0.133,-0.094 0.133,-0.109L0.133,-0.6C0.133,-0.616 0.131,-0.628 0.126,-0.638C0.122,-0.647 0.116,-0.654 0.109,-0.659C0.101,-0.664 0.093,-0.668 0.083,-0.669C0.073,-0.671 0.062,-0.672 0.051,-0.672L0.038,-0.672L0.038,-0.714L0.542,-0.714L0.547,-0.539L0.495,-0.539L0.49,-0.582C0.489,-0.593 0.486,-0.604 0.483,-0.614C0.479,-0.623 0.474,-0.632 0.467,-0.64C0.46,-0.647 0.451,-0.653 0.44,-0.657C0.43,-0.662 0.417,-0.664 0.402,-0.664L0.234,-0.664L0.234,-0.398L0.475,-0.398L0.475,-0.349L0.234,-0.349L0.234,-0.05Z" style="fill:white;fill-rule:nonzero;"/>
            </g>
        </g>
        <g transform="matrix(1.40715,0,0,1.27923,798.504,5857.56)">
            <g transform="matrix(550,0,0,550,0,0)">
                <path d="M0.583,-0.711L0.583,-0.228C0.583,-0.16 0.562,-0.106 0.52,-0.063C0.478,-0.02 0.421,0.004 0.35,0.009L0.325,0.01C0.247,0.01 0.185,-0.011 0.139,-0.053C0.092,-0.095 0.069,-0.153 0.068,-0.227L0.068,-0.711L0.161,-0.711L0.161,-0.229C0.161,-0.178 0.175,-0.138 0.204,-0.11C0.232,-0.081 0.272,-0.067 0.325,-0.067C0.378,-0.067 0.418,-0.081 0.447,-0.109C0.475,-0.138 0.489,-0.178 0.489,-0.229L0.489,-0.711L0.583,-0.711Z" style="fill:white;fill-rule:nonzero;"/>
            </g>
            <g transform="matrix(550,0,0,550,356.641,0)">
                <path d="M0.629,-0L0.535,-0L0.177,-0.548L0.177,-0L0.083,-0L0.083,-0.711L0.177,-0.711L0.536,-0.161L0.536,-0.711L0.629,-0.711L0.629,-0Z" style="fill:white;fill-rule:nonzero;"/>
            </g>
            <g transform="matrix(550,0,0,550,748.73,0)">
                <rect x="0.089" y="-0.711" width="0.094" height="0.711" style="fill:white;fill-rule:nonzero;"/>
            </g>
            <g transform="matrix(550,0,0,550,898.315,0)">
                <path d="M0.318,-0.125L0.521,-0.711L0.624,-0.711L0.36,-0L0.277,-0L0.014,-0.711L0.116,-0.711L0.318,-0.125Z" style="fill:white;fill-rule:nonzero;"/>
            </g>
            <g transform="matrix(550,0,0,550,1248.24,0)">
                <path d="M0.484,-0.329L0.176,-0.329L0.176,-0.077L0.534,-0.077L0.534,-0L0.083,-0L0.083,-0.711L0.529,-0.711L0.529,-0.634L0.176,-0.634L0.176,-0.405L0.484,-0.405L0.484,-0.329Z" style="fill:white;fill-rule:nonzero;"/>
            </g>
            <g transform="matrix(550,0,0,550,1560.84,0)">
                <path d="M0.343,-0.288L0.176,-0.288L0.176,-0L0.082,-0L0.082,-0.711L0.317,-0.711C0.397,-0.711 0.459,-0.693 0.502,-0.656C0.545,-0.62 0.567,-0.567 0.567,-0.497C0.567,-0.453 0.555,-0.414 0.531,-0.381C0.507,-0.348 0.474,-0.324 0.431,-0.308L0.598,-0.006L0.598,-0L0.498,-0L0.343,-0.288ZM0.176,-0.364L0.32,-0.364C0.367,-0.364 0.404,-0.376 0.431,-0.4C0.459,-0.424 0.473,-0.457 0.473,-0.497C0.473,-0.541 0.46,-0.575 0.433,-0.598C0.407,-0.622 0.369,-0.633 0.32,-0.634L0.176,-0.634L0.176,-0.364Z" style="fill:white;fill-rule:nonzero;"/>
            </g>
            <g transform="matrix(550,0,0,550,1899.49,0)">
                <path d="M0.292,-0.317C0.212,-0.34 0.153,-0.368 0.116,-0.402C0.08,-0.436 0.062,-0.477 0.062,-0.527C0.062,-0.583 0.084,-0.629 0.129,-0.666C0.173,-0.702 0.232,-0.721 0.303,-0.721C0.352,-0.721 0.396,-0.711 0.434,-0.692C0.472,-0.674 0.502,-0.647 0.523,-0.614C0.544,-0.581 0.554,-0.545 0.554,-0.505L0.46,-0.505C0.46,-0.548 0.446,-0.582 0.419,-0.607C0.392,-0.631 0.353,-0.644 0.303,-0.644C0.257,-0.644 0.221,-0.633 0.195,-0.613C0.169,-0.593 0.156,-0.564 0.156,-0.528C0.156,-0.499 0.169,-0.475 0.193,-0.455C0.218,-0.435 0.26,-0.417 0.319,-0.4C0.378,-0.383 0.424,-0.365 0.457,-0.345C0.491,-0.325 0.515,-0.302 0.531,-0.275C0.548,-0.248 0.556,-0.217 0.556,-0.181C0.556,-0.123 0.533,-0.077 0.488,-0.042C0.443,-0.008 0.383,0.01 0.308,0.01C0.259,0.01 0.214,0 0.171,-0.018C0.129,-0.037 0.096,-0.063 0.073,-0.095C0.051,-0.128 0.039,-0.165 0.039,-0.206L0.133,-0.206C0.133,-0.163 0.149,-0.129 0.181,-0.104C0.213,-0.079 0.255,-0.067 0.308,-0.067C0.358,-0.067 0.396,-0.077 0.422,-0.097C0.448,-0.117 0.461,-0.145 0.461,-0.18C0.461,-0.215 0.449,-0.241 0.425,-0.26C0.4,-0.28 0.356,-0.298 0.292,-0.317Z" style="fill:white;fill-rule:nonzero;"/>
            </g>
            <g transform="matrix(550,0,0,550,2225.78,0)">
                <rect x="0.089" y="-0.711" width="0.094" height="0.711" style="fill:white;fill-rule:nonzero;"/>
            </g>
            <g transform="matrix(550,0,0,550,2367.58,0)">
                <path d="M0.574,-0.634L0.345,-0.634L0.345,-0L0.252,-0L0.252,-0.634L0.024,-0.634L0.024,-0.711L0.574,-0.711L0.574,-0.634Z" style="fill:white;fill-rule:nonzero;"/>
            </g>
            <g transform="matrix(550,0,0,550,2700.05,0)">
                <path d="M0.299,-0.354L0.485,-0.711L0.591,-0.711L0.346,-0.265L0.346,-0L0.252,-0L0.252,-0.265L0.007,-0.711L0.115,-0.711L0.299,-0.354Z" style="fill:white;fill-rule:nonzero;"/>
            </g>
            <g transform="matrix(550,0,0,550,3166.53,0)">
                <path d="M0.629,-0.333C0.629,-0.263 0.618,-0.202 0.594,-0.15C0.571,-0.098 0.538,-0.059 0.495,-0.031C0.452,-0.004 0.402,0.01 0.344,0.01C0.288,0.01 0.239,-0.004 0.195,-0.031C0.152,-0.059 0.118,-0.098 0.094,-0.149C0.071,-0.2 0.058,-0.259 0.058,-0.326L0.058,-0.377C0.058,-0.446 0.069,-0.506 0.093,-0.559C0.117,-0.611 0.151,-0.651 0.194,-0.679C0.238,-0.707 0.287,-0.721 0.343,-0.721C0.4,-0.721 0.45,-0.707 0.494,-0.679C0.537,-0.652 0.571,-0.612 0.594,-0.56C0.618,-0.508 0.629,-0.447 0.629,-0.377L0.629,-0.333ZM0.536,-0.378C0.536,-0.463 0.519,-0.527 0.485,-0.573C0.451,-0.618 0.404,-0.64 0.343,-0.64C0.284,-0.64 0.237,-0.618 0.203,-0.573C0.169,-0.527 0.152,-0.465 0.151,-0.385L0.151,-0.333C0.151,-0.251 0.168,-0.187 0.202,-0.14C0.237,-0.093 0.284,-0.07 0.344,-0.07C0.405,-0.07 0.452,-0.092 0.485,-0.136C0.518,-0.18 0.535,-0.243 0.536,-0.326L0.536,-0.378Z" style="fill:white;fill-rule:nonzero;"/>
            </g>
            <g transform="matrix(550,0,0,550,3544.65,0)">
                <path d="M0.475,-0.314L0.176,-0.314L0.176,-0L0.083,-0L0.083,-0.711L0.523,-0.711L0.523,-0.634L0.176,-0.634L0.176,-0.391L0.475,-0.391L0.475,-0.314Z" style="fill:white;fill-rule:nonzero;"/>
            </g>
        </g>
    </g>
</svg>
